<?xml version="1.0" encoding="UTF-8"?>
<svg id="Layer_1" xmlns="http://www.w3.org/2000/svg" version="1.1" viewBox="0 0 120 60">
  <!-- Generator: Adobe Illustrator 29.5.1, SVG Export Plug-In . SVG Version: 2.1.0 Build 141)  -->
  <defs>
    <style>
      .st0 {
        fill: #a100ff;
      }
    </style>
  </defs>
  <g id="g1">
    <polygon id="polygon1" class="st0" points="69.66 14.88 69.66 11.35 81.27 16.04 81.27 18.92 69.66 23.61 69.66 20 76.44 17.48 69.66 14.88"/>
    <path id="path1" d="M5.57,42.35c-2.45,0-4.47-1.23-4.47-3.97v-.14c0-3.32,2.88-4.47,6.42-4.47h1.66v-.65c0-1.37-.58-2.16-2.02-2.16-1.3,0-1.95.72-2.02,1.73H1.53c.29-3.03,2.67-4.47,5.84-4.47s5.62,1.37,5.62,4.76v9.08h-3.68v-1.59c-.72,1.01-1.95,1.87-3.75,1.87ZM9.17,37.59v-1.3h-1.51c-1.87,0-2.81.5-2.81,1.73v.14c0,.94.58,1.59,1.87,1.59,1.3-.07,2.45-.79,2.45-2.16ZM21.57,42.35c-3.75,0-6.49-2.31-6.49-6.92v-.22c0-4.61,2.88-7.07,6.49-7.07,3.1,0,5.62,1.59,5.91,5.12h-3.6c-.22-1.3-.94-2.16-2.23-2.16-1.59,0-2.74,1.3-2.74,3.97v.43c0,2.74,1.01,3.97,2.74,3.97,1.3,0,2.23-.94,2.45-2.45h3.46c-.22,3.17-2.31,5.33-5.98,5.33ZM35.7,42.35c-3.75,0-6.49-2.31-6.49-6.92v-.22c0-4.61,2.88-7.07,6.49-7.07,3.1,0,5.62,1.59,5.91,5.12h-3.6c-.22-1.3-.94-2.16-2.23-2.16-1.59,0-2.74,1.3-2.74,3.97v.43c0,2.74,1.01,3.97,2.74,3.97,1.3,0,2.23-.94,2.45-2.45h3.46c-.22,3.17-2.31,5.33-5.98,5.33ZM49.91,42.35c-3.89,0-6.56-2.31-6.56-6.85v-.29c0-4.54,2.81-7.07,6.49-7.07,3.39,0,6.2,1.87,6.2,6.42v1.66h-8.87c.14,2.45,1.23,3.39,2.81,3.39,1.44,0,2.23-.79,2.52-1.73h3.53c-.43,2.52-2.6,4.47-6.13,4.47ZM47.24,33.7h5.05c-.07-2.02-1.01-2.88-2.52-2.88-1.15.07-2.23.72-2.52,2.88ZM58.34,28.51h3.82v2.02c.65-1.3,2.02-2.31,4.11-2.31,2.45,0,4.11,1.51,4.11,4.76v9.08h-3.82v-8.51c0-1.59-.65-2.31-2.02-2.31-1.3,0-2.38.79-2.38,2.52v8.29h-3.82v-13.55ZM77.37,24.4v4.11h2.6v2.81h-2.6v6.42c0,1.01.43,1.51,1.37,1.51.58,0,.94-.07,1.3-.22v2.96c-.43.14-1.23.29-2.16.29-2.96,0-4.33-1.37-4.33-4.11v-6.85h-1.59v-2.81h1.59v-2.52l3.82-1.59ZM94.24,42.06h-3.75v-2.02c-.65,1.3-1.95,2.31-3.97,2.31-2.45,0-4.25-1.51-4.25-4.69v-9.16h3.82v8.65c0,1.59.65,2.31,1.95,2.31s2.38-.87,2.38-2.52v-8.43h3.82v13.55ZM97.06,28.51h3.82v2.52c.79-1.8,2.09-2.67,4.11-2.67v3.75c-2.6,0-4.11.79-4.11,3.03v6.99h-3.82v-13.63ZM112.7,42.35c-3.89,0-6.56-2.31-6.56-6.85v-.29c0-4.54,2.81-7.07,6.49-7.07,3.39,0,6.2,1.87,6.2,6.42v1.66h-8.8c.14,2.45,1.23,3.39,2.81,3.39,1.44,0,2.23-.79,2.52-1.73h3.53c-.58,2.52-2.67,4.47-6.2,4.47h0ZM109.96,33.7h5.12c-.07-2.02-1.01-2.88-2.52-2.88-1.15.07-2.23.72-2.6,2.88Z"/>
  </g>
</svg>