<?xml version="1.0" encoding="UTF-8"?>
<svg id="Layer_1" xmlns="http://www.w3.org/2000/svg" version="1.1" xmlns:xlink="http://www.w3.org/1999/xlink" viewBox="0 0 120 60">
  <!-- Generator: Adobe Illustrator 29.5.1, SVG Export Plug-In . SVG Version: 2.1.0 Build 141)  -->
  <defs>
    <style>
      .st0 {
        fill: #161d26;
      }

      .st1 {
        fill: none;
      }

      .st2 {
        fill: #ff6200;
      }

      .st3 {
        clip-path: url(#clippath);
      }
    </style>
    <clipPath id="clippath">
      <rect class="st1" x="12.9" y="14.3" width="94.21" height="31.4"/>
    </clipPath>
  </defs>
  <g class="st3">
    <g>
      <path class="st0" d="M17.51,30.95c-.91,0-1.71-.2-2.41-.6-.69-.41-1.23-.98-1.62-1.68-.39-.73-.57-1.56-.57-2.51,0-1.14.28-2.14.84-2.99.57-.86,1.39-1.51,2.45-1.98,1.07-.45,2.31-.69,3.74-.69.65,0,1.19.04,1.6.13v-.4c0-.98-.17-1.7-.53-2.16-.36-.48-.91-.73-1.64-.73-1.18,0-1.94.61-2.27,1.86-.11.36-.32.51-.64.45l-2.63-.44c-.19-.04-.33-.12-.4-.25s-.07-.29-.01-.52c.33-1.31,1.04-2.31,2.12-3.03,1.1-.73,2.46-1.1,4.1-1.1,1.95,0,3.43.52,4.45,1.58,1.03,1.04,1.54,2.58,1.54,4.58v9.65c0,.15-.05.27-.16.36-.09.09-.2.13-.35.13h-2.5c-.31,0-.51-.16-.57-.49l-.39-1.8h-.16c-.35.84-.87,1.5-1.56,1.95-.67.48-1.48.71-2.42.71ZM17.09,25.7c0,.68.17,1.22.52,1.63.36.4.84.6,1.44.6.8,0,1.4-.35,1.83-1.06.43-.72.64-1.74.64-3.07v-1.02c-.36-.07-.69-.09-1.02-.09-1.06,0-1.88.28-2.5.83-.61.52-.92,1.26-.92,2.18ZM28.01,15.14c0-.15.04-.25.13-.35.11-.11.23-.15.36-.15h2.54c.15,0,.25.04.35.13.11.09.17.21.19.36l.39,1.88h.16c.35-.88.84-1.55,1.48-2.02.65-.47,1.43-.71,2.31-.71.95,0,1.76.25,2.45.75.69.49,1.23,1.2,1.6,2.12h.16c.56-.98,1.2-1.7,1.91-2.16s1.5-.71,2.37-.71c.95,0,1.78.25,2.47.76.71.51,1.24,1.24,1.62,2.19.37.95.56,2.07.56,3.35v9.5c0,.15-.05.27-.16.36-.09.09-.2.13-.35.13h-3.09c-.15,0-.27-.04-.36-.13-.09-.11-.13-.23-.13-.36v-9.19c0-.94-.17-1.64-.53-2.15-.36-.49-.88-.75-1.56-.75-.75,0-1.32.29-1.71.88-.39.59-.57,1.44-.57,2.55v8.65c0,.15-.05.27-.16.36-.09.09-.2.13-.35.13h-3.09c-.15,0-.27-.04-.36-.13-.09-.11-.13-.23-.13-.36v-9.19c0-.94-.17-1.64-.53-2.15-.36-.49-.88-.75-1.56-.75-.75,0-1.32.29-1.71.88-.39.59-.57,1.44-.57,2.55v8.65c0,.15-.05.27-.16.36-.09.09-.2.13-.35.13h-3.09c-.15,0-.27-.04-.36-.13-.09-.11-.13-.23-.13-.36v-14.94h-.01ZM51.06,26.15c0-1.14.28-2.14.84-2.99.57-.86,1.39-1.51,2.45-1.98,1.07-.45,2.31-.69,3.74-.69.65,0,1.19.04,1.6.13v-.4c0-.98-.17-1.7-.53-2.16-.36-.48-.91-.73-1.64-.73-1.18,0-1.94.61-2.27,1.86-.11.36-.32.51-.64.45l-2.62-.45c-.19-.04-.33-.12-.4-.25s-.07-.29-.01-.52c.33-1.31,1.04-2.31,2.12-3.03,1.1-.73,2.46-1.1,4.1-1.1,1.95,0,3.43.52,4.45,1.58,1.03,1.04,1.54,2.58,1.54,4.58v9.65c0,.15-.05.27-.16.36-.09.09-.2.13-.35.13h-2.5c-.31,0-.49-.16-.57-.49l-.39-1.8h-.16c-.35.84-.87,1.5-1.56,1.95-.68.45-1.5.69-2.43.69s-1.71-.2-2.41-.6c-.69-.41-1.23-.98-1.62-1.68-.39-.69-.57-1.54-.57-2.49ZM55.26,25.7c0,.68.17,1.22.52,1.63.36.4.84.6,1.44.6.8,0,1.4-.35,1.83-1.06.43-.72.64-1.74.64-3.07v-1.02c-.36-.07-.69-.09-1.02-.09-1.06,0-1.88.28-2.5.83-.61.52-.92,1.26-.92,2.18ZM65.85,27.78c0-.28.08-.52.23-.73l6.59-9.19h-6.17c-.15,0-.27-.04-.36-.13-.09-.11-.13-.23-.13-.36v-2.23c0-.15.04-.25.13-.35.11-.11.23-.15.36-.15h10.14c.15,0,.25.05.35.15.11.09.16.2.16.35v2.33c0,.28-.08.52-.23.73l-5.97,8.18c.36-.07.72-.09,1.1-.09.92,0,1.78.08,2.54.25.79.15,1.59.41,2.43.76.29.13.44.35.44.65v2.2c0,.2-.07.35-.19.43-.13.07-.29.05-.48-.01-.96-.36-1.82-.6-2.57-.75-.73-.15-1.54-.23-2.41-.23s-1.71.08-2.54.23-1.74.4-2.74.75c-.19.07-.35.07-.48,0-.13-.08-.19-.21-.19-.4v-2.38h-.01ZM78.31,22.62c0-1.56.31-2.97.91-4.24.6-1.28,1.43-2.27,2.49-2.99,1.07-.73,2.24-1.1,3.54-1.1s2.5.36,3.54,1.1c1.07.72,1.9,1.71,2.5,2.99.61,1.27.92,2.67.92,4.24s-.31,2.98-.92,4.26c-.6,1.27-1.44,2.26-2.5,2.99-1.06.72-2.23,1.07-3.54,1.07s-2.49-.36-3.54-1.07c-1.06-.73-1.88-1.72-2.49-2.99-.6-1.28-.91-2.7-.91-4.26ZM82.54,22.62c0,1.63.23,2.87.69,3.76.47.87,1.14,1.31,2,1.31s1.55-.44,2.02-1.31c.48-.88.71-2.14.71-3.76s-.24-2.87-.71-3.74c-.48-.88-1.15-1.32-2.02-1.32s-1.54.44-2,1.32c-.45.87-.69,2.11-.69,3.74ZM94.3,15.14c0-.15.04-.25.13-.35.11-.11.23-.15.36-.15h2.54c.15,0,.25.04.35.13.11.09.16.21.19.36l.39,1.88h.16c.35-.87.86-1.54,1.52-2.02.68-.47,1.48-.71,2.39-.71.98,0,1.82.25,2.53.76.72.51,1.27,1.24,1.66,2.19.39.95.57,2.07.57,3.35v9.5c0,.15-.05.27-.16.36-.09.09-.2.13-.35.13h-3.09c-.15,0-.27-.04-.36-.13-.09-.11-.13-.23-.13-.36v-9.19c0-.94-.19-1.64-.57-2.15-.39-.49-.94-.75-1.64-.75-.79,0-1.38.29-1.79.88-.41.59-.61,1.44-.61,2.55v8.65c0,.15-.05.27-.16.36-.09.09-.2.13-.35.13h-3.09c-.15,0-.27-.04-.36-.13-.09-.11-.13-.23-.13-.36v-14.95h.01Z"/>
      <path class="st2" d="M23.61,32.81c-.24.19-.29.51-.16.96.13.4.43.9.91,1.48,1.91,2.35,4.2,4.32,6.84,5.87,2.65,1.56,5.48,2.71,8.5,3.45,3.03.75,6.13,1.14,9.29,1.14,4.05,0,7.9-.59,11.56-1.76,3.66-1.16,6.72-2.81,9.18-4.9.86-.75,1.3-1.35,1.3-1.8,0-.16-.07-.33-.21-.49-.19-.19-.43-.25-.69-.19s-.65.23-1.14.48c-2.35,1.23-5.21,2.2-8.59,2.94-3.37.75-6.88,1.11-10.54,1.11-4.53,0-8.91-.61-13.15-1.84-4.22-1.23-7.98-3.14-11.24-5.76-.48-.37-.86-.6-1.16-.71-.27-.12-.51-.09-.68.04Z"/>
      <path class="st2" d="M66.44,33.77c-.27.25-.33.52-.21.8.09.2.27.32.52.35.25.04.63.01,1.1-.08.78-.16,1.58-.28,2.41-.35.83-.05,1.56-.04,2.18.04.61.09,1,.24,1.16.45.23.35.15,1.07-.25,2.19-.39,1.11-.91,2.19-1.58,3.25-.25.43-.41.75-.47,1-.05.24.01.44.19.61.12.12.24.17.39.17.37,0,.91-.32,1.62-.98,1.27-1.1,2.16-2.41,2.67-3.92.28-.78.45-1.6.52-2.46s-.03-1.47-.29-1.84c-.24-.36-.79-.65-1.62-.88-.83-.23-1.66-.35-2.49-.35-1.63,0-3.18.39-4.65,1.15-.52.29-.92.57-1.19.83Z"/>
    </g>
  </g>
</svg>