<?xml version="1.0" encoding="UTF-8"?>
<svg id="Layer_1" xmlns="http://www.w3.org/2000/svg" version="1.1" viewBox="0 0 120 60">
  <!-- Generator: Adobe Illustrator 29.5.1, SVG Export Plug-In . SVG Version: 2.1.0 Build 141)  -->
  <defs>
    <style>
      .st0 {
        fill: #461651;
      }
    </style>
  </defs>
  <polygon class="st0" points="40.36 5.27 40.36 54.73 10.2 38.33 29.63 41.78 29.63 14.08 9.88 15.46 9.88 38.39 1.28 41.36 1.28 11.11 40.36 5.27"/>
  <polygon class="st0" points="28.04 29.36 28.04 30.64 22.94 30.43 22.94 29.57 28.04 29.36"/>
  <path class="st0" d="M104.59,26.41c-.15.11-2.68-.89-3.53-.83-1.64.12-2.31,1.8-1.06,2.84.82.68,2.88,1.33,3.93,1.91.94.52,1.87,1.11,1.95,2.3.25,3.56-5.3,2.9-7.33,1.75.13-.16.21-.69.38-.73.09-.02,1.07.4,1.32.47,1.19.32,2.3.54,3.53.24,1.41-.34,1.74-1.92.6-2.78-1.38-1.04-5.17-1.9-5.7-3.54-.71-2.18.96-3.39,3-3.31.67.03,2.43.46,2.96.86.26.2.08.73-.05.83Z"/>
  <path class="st0" d="M66.48,25.65c-.11.13-.3.74-.38.75-.27.04-2.3-.8-2.98-.85-.52-.04-1.29.08-1.69.41-.67.57-.63,1.83.06,2.38.92.74,3.07,1.39,4.21,2.06.82.48,1.62,1.06,1.73,2.09.3,2.74-2.88,3.03-4.89,2.66-.39-.07-1.99-.53-2.23-.75s.11-.8.17-.8c.18-.02,1.03.4,1.32.48,1.22.34,2.81.61,4,.07,1.1-.5,1.02-1.9.13-2.61-1.78-1.43-6.29-1.81-5.81-4.86.45-2.86,4.56-2.02,6.35-1.03Z"/>
  <path class="st0" d="M80.28,30.4h-6.48v2.28c0,.27.41,1.08.63,1.28.21.18.98.47,1.23.47h4.41v.85h-4.3c-.14,0-.92-.2-1.11-.27-.82-.28-1.32-.92-1.54-1.75-.27-.98-.28-4.38-.16-5.47.33-3.03,4.4-4.18,6.43-1.86.33.38.9,1.48.9,1.96v2.49ZM79.43,29.55v-1.54c0-.08-.17-.6-.22-.73-.8-2.03-3.66-2.37-4.92-.59-.09.13-.48.92-.48,1v1.86h5.63Z"/>
  <path class="st0" d="M53.73,29.58v-2.28c0-.18-.45-.86-.61-1.01-.31-.29-1.26-.74-1.67-.74h-3.13v-.85h3.13c.59,0,1.91.63,2.33,1.06.4.41.9,1.51.9,2.07v7.32s-.15.16-.16.16h-4.57c-.15,0-1.11-.31-1.3-.4-1.73-.87-1.85-3.79-.21-4.82.2-.12,1.12-.51,1.29-.51h3.98ZM53.73,30.42h-3.98c-.08,0-.65.23-.77.3-1.21.69-1.13,2.88.18,3.47.1.04.75.27.8.27h3.77v-4.03Z"/>
  <path class="st0" d="M93.02,35.2h-.85v-7.8c0-.08-.53-.93-.65-1.05-.22-.22-1.03-.7-1.32-.7h-3.66v9.55h-.85v-10.24s.15-.16.16-.16h4.35c.96,0,2.81,1.51,2.81,2.49v7.91Z"/>
  <path class="st0" d="M118.72,30.41h-6.48v2.28s.25.77.3.87c.24.47,1.06.88,1.56.88h4.41v.85h-4.3c-.16,0-1.09-.24-1.28-.31-.84-.34-1.35-1.26-1.49-2.12-.15-1-.17-4.86.11-5.73.82-2.55,4.32-3.23,6.16-1.28.38.41,1.01,1.53,1.01,2.07v2.49ZM117.87,29.56v-1.54c0-1.96-2.81-3.15-4.45-2.01-.32.22-1.17,1.22-1.17,1.59v1.96h5.63Z"/>
</svg>