<?xml version="1.0" encoding="UTF-8"?>
<svg id="Layer_1" xmlns="http://www.w3.org/2000/svg" version="1.1" viewBox="0 0 120 60">
  <!-- Generator: Adobe Illustrator 29.5.1, SVG Export Plug-In . SVG Version: 2.1.0 Build 141)  -->
  <defs>
    <style>
      .st0 {
        fill: #96c600;
      }
    </style>
  </defs>
  <path class="st0" d="M115.64,36.97c2.56,0,3.82-1.04,3.82-2.91v-.07c0-1.35-.77-2.28-2.53-2.47l-2.32-.25c-.67-.07-1-.42-1-1.03v-.54c0-.2.13-.33.33-.33h3c.2,0,.33.12.33.33v1h2.07c-.12-1.9-1.39-2.89-3.91-2.89-2.39,0-3.75.93-3.75,2.77v.04c0,1.34.88,2.3,2.27,2.44l2.62.27c.67.07.97.42.97,1.06v.67c0,.19-.12.32-.32.32h-3.22c-.19,0-.33-.12-.33-.32v-1h-2.15c.05,1.87,1.5,2.91,4.13,2.91M108.08,27.06h2.26v-2.17h-2.26v2.17ZM108.12,36.79h2.19v-8.81h-2.19v8.81ZM104.24,36.79h2.19v-11.9h-2.19v11.9ZM100.42,29.7v1.98h-3.3c-1.74,0-2.79.96-2.79,2.54,0,1.81,1.41,2.74,3.29,2.74,1.28,0,2.34-.5,2.8-1.59h-3.51c-.19,0-.33-.12-.33-.32v-2.12h3.84v3.85h2.19v-6.2c0-1.88-1.54-2.79-3.84-2.79s-4.14,1.01-4.18,2.99h1.99v-1.1c0-.2.13-.33.33-.33h3.2c.19,0,.32.12.32.33M88.14,26.96h1.69l1.39-2.07h-2.42l-.66,2.07ZM86.92,31.68v-1.98c0-.2.12-.33.32-.33h3.64c.2,0,.33.12.33.33v1.98h-4.29ZM89.14,36.97c2.44,0,3.85-1.41,4.19-3.08h-2.18v1.17c0,.19-.12.32-.32.32h-3.59c-.19,0-.32-.12-.32-.32v-2.12h6.45v-.8c0-1.23-.3-2.29-.92-3.04-.72-.86-1.94-1.3-3.36-1.3s-2.7.42-3.46,1.28c-.67.78-1,1.88-1,3.24v.12c0,1.37.33,2.44,1,3.21.78.87,1.99,1.31,3.51,1.31M74.35,36.79h2.08v-4.33c0-.19.12-.32.32-.32h3.8l1.83,4.65h2.21l-1.99-4.98c-.34-.84-.62-1.19-1.15-1.32-.24-.06-.52-.08-.89-.08h-3.82c-.19,0-.32-.12-.32-.32v-3.46h4.69c.19,0,.33.12.33.32v3.54c1.79-.65,2.27-1.57,2.27-2.67,0-1.82-1.26-2.92-3.56-2.92h-5.81v11.9h0ZM69.21,36.97c2.56,0,3.82-1.04,3.82-2.91v-.07c0-1.35-.77-2.28-2.53-2.47l-2.32-.25c-.67-.07-1-.42-1-1.03v-.54c0-.2.13-.33.33-.33h3c.2,0,.33.12.33.33v1h2.07c-.12-1.9-1.39-2.89-3.91-2.89-2.39,0-3.75.93-3.75,2.77v.04c0,1.34.88,2.3,2.27,2.44l2.62.27c.67.07.97.42.97,1.06v.67c0,.19-.12.32-.32.32h-3.22c-.19,0-.33-.12-.33-.32v-1h-2.15c.05,1.87,1.5,2.91,4.13,2.91M55.86,36.79h2.19v-8.81h-2.19v8.81ZM61.67,29.9v6.89h2.19v-6.45c0-1.52-1.08-2.51-2.91-2.51-1.45,0-2.42.63-2.9,1.76h3.3c.19,0,.32.12.32.32M52.02,27.06h2.26v-2.17h-2.26v2.17ZM52.05,36.79h2.19v-8.81h-2.19v8.81ZM45.07,32.06l3.6,4.73h2.51l-3.59-4.64c-.09-.12-.09-.25.02-.37l3.53-3.8h-2.36s-3.71,4.08-3.71,4.08ZM45.07,24.89h-2.19v11.9h2.19v-11.9ZM39.45,25.4h-2.18v2.24c0,.21-.12.35-.33.35h-1.29v1.51h1.62v4.98c0,1.49.89,2.32,2.42,2.32h1.88v-1.55h-1.8c-.19,0-.32-.12-.32-.32v-5.44h2.12v-1.51h-2.12v-2.59h0ZM33.94,36.79h2.36l-3.74-11.02c-.23-.66-.53-.88-1.08-.88h-2.34c-.52,0-.81.21-1.04.88l-3.77,11.02h2.3l1.04-3.37h5.22l1.04,3.37h0ZM28.21,31.68l2.07-6.7,2.07,6.7h-4.14Z"/>
  <path class="st0" d="M4.5,24.89c0-2.19,1.78-3.97,3.97-3.97h3.97v3.97h-7.94ZM24.33,24.89v-3.97h-3.97c-2.19,0-3.97,1.78-3.97,3.97h7.94ZM.53,28.86v3.97h3.97v-7.93c-2.19,0-3.97,1.78-3.97,3.97h0ZM8.46,36.79c2.19,0,3.97-1.78,3.97-3.97h-7.93v3.97h3.97-.01ZM16.4,36.79v-11.9h-3.97v7.93c0,2.19,1.78,3.97,3.97,3.97Z"/>
</svg>