<?xml version="1.0" encoding="UTF-8"?>
<svg id="Layer_1" xmlns="http://www.w3.org/2000/svg" version="1.1" viewBox="0 0 120 60">
  <!-- Generator: Adobe Illustrator 29.5.1, SVG Export Plug-In . SVG Version: 2.1.0 Build 141)  -->
  <defs>
    <style>
      .st0 {
        fill: #7fbd3f;
      }

      .st1 {
        fill: #eb1923;
      }

      .st2 {
        fill: #fff;
      }

      .st3 {
        fill: #fdd700;
      }
    </style>
  </defs>
  <g id="g22700">
    <path id="path5727" class="st1" d="M108.32,18.01c-.07-.61-.52-1.1-1.12-1.23-4.35-.95-22.39-4.54-46.21-4.54h-1.98c-23.84,0-41.88,3.58-46.23,4.54-.6.12-1.04.61-1.12,1.23l-2.15,18.82s.03.07.05.07c27.02-1.35,42.85,4.85,48.3,8.18,1.31.8,2.97.8,4.28,0,5.41-3.33,21.25-9.53,48.27-8.18.04,0,.05-.03.05-.07l-2.15-18.82"/>
    <path id="path5729" class="st3" d="M9.52,36.83l.04-.33c18.62-1.83,45.5-.84,59.57,7.03-2.34.95-5.9,2.93-6.98,3.58-1.32.82-2.97.82-4.28,0-1.08-.65-2.58-1.5-4.47-2.4-7.65-3.65-22-8.45-43.45-7.44-.27,0-.46-.2-.44-.45"/>
    <path id="path5731" class="st0" d="M110.48,36.83l-.04-.33c-18.6-1.83-45.53-.83-59.59,7.06,2.33.94,5.89,2.89,7.02,3.56,1.39.86,2.97.82,4.28,0,1.08-.65,2.56-1.44,4.47-2.4,7.58-3.8,22-8.45,43.43-7.44.26,0,.48-.19.44-.45"/>
    <path id="path5733" class="st2" d="M27.03,25.17c.99.42,1.55,1.29,1.55,2.41,0,1.91-1.27,3.2-3.45,3.2h-5.03v-10.82h4.61c1.98,0,3.41,1.17,3.41,3.22,0,.78-.41,1.57-1.09,1.99M22.41,21.95v2.45h2.13c.79,0,1.29-.42,1.31-1.16.01-.79-.5-1.29-1.31-1.29h-2.13ZM22.41,26.3v2.47h2.58c.79,0,1.25-.46,1.31-1.19.01-.44-.16-.84-.48-1.06-.27-.19-.59-.22-.94-.22h-2.47"/>
    <path id="path5735" class="st2" d="M39.04,30.46v.33h-1.43c-1.14,0-1.61-.9-1.61-.9l-1.68-2.68h-1.94v3.58h-2.32v-10.85c1.54,0,3.08,0,4.63,0,2.47,0,3.82,1.8,3.82,3.72,0,1.39-.7,2.59-1.94,3.2l2.45,3.6ZM34.68,25.3c.97,0,1.61-.75,1.59-1.69,0-.91-.6-1.65-1.59-1.65h-2.32v3.34h2.32"/>
    <path id="path5737" class="st2" d="M40.51,30.8h2.32v-10.83h-2.32v10.83Z"/>
    <path id="path5739" class="st2" d="M85.26,30.8h2.33v-10.83h-2.33v10.83Z"/>
    <path id="path5741" class="st2" d="M44.3,21.97v-2h8.95l-.63,1.35c-.18.41-.59.65-1.04.65h-2.02v8.83h-2.25v-8.83h-3.03"/>
    <path id="path5743" class="st2" d="M54.38,29l-.83,1.8h-2.41v-.31l4.97-10.62h1.08l4.96,10.62v.31h-2.41l-.84-1.8h-4.51ZM55.15,27.05h3l-1.5-3.57"/>
    <path id="path5745" class="st2" d="M65.49,24.61v6.19h-2.3v-10.89h.72l6.08,6.2v-6.15h2.33v10.87h-.7"/>
    <path id="path5747" class="st2" d="M76.54,24.61v6.19h-2.3v-10.89h.72l6.09,6.2v-6.15h2.32v10.87h-.7"/>
    <path id="path5749" class="st2" d="M92.13,29l-.83,1.8h-2.41v-.31l4.97-10.62h1.08l4.95,10.62v.31h-2.4l-.84-1.8h-4.51ZM92.9,27.05h3l-1.5-3.57"/>
  </g>
</svg>