<?xml version="1.0" encoding="UTF-8"?>
<svg id="Layer_1" xmlns="http://www.w3.org/2000/svg" version="1.1" viewBox="0 0 120 60">
  <!-- Generator: Adobe Illustrator 29.5.1, SVG Export Plug-In . SVG Version: 2.1.0 Build 141)  -->
  <defs>
    <style>
      .st0 {
        fill: #fbb016;
      }

      .st1 {
        fill: #1f074f;
      }

      .st2 {
        fill: #04ab61;
      }
    </style>
  </defs>
  <g>
    <path class="st1" d="M33.62,30.44c-.86-.72-2.04-1.08-3.57-1.08h-5.13v13.35h2.64v-3.86h1.84c.81.02,1.63-.12,2.4-.41.65-.26,1.22-.67,1.68-1.17.43-.48.79-1.05.98-1.68.22-.65.34-1.32.31-1.99.07-1.39-.34-2.44-1.15-3.16ZM31.9,35.16c-.19.46-.5.84-.91,1.13-.48.29-1.05.43-1.63.41h-1.82v-5.08h2.44c.58-.02,1.13.12,1.58.46.41.31.62.81.62,1.53.05.55-.07,1.08-.29,1.56Z"/>
    <path class="st1" d="M45.34,40v-3.35c.02-.74-.1-1.49-.36-2.18-.22-.53-.55-.98-1.01-1.32-.46-.34-.98-.55-1.53-.62-.62-.14-1.27-.19-1.89-.19-.55,0-1.13.05-1.68.14-.5.07-1.01.19-1.49.36v2.08h.19c.38-.17.77-.29,1.17-.36.48-.1.98-.17,1.49-.19.48-.02.98.05,1.44.19.36.1.67.31.86.62.22.46.34.93.31,1.44v.19l-.55-.14c-.46-.1-.93-.14-1.41-.14-.79,0-1.56.12-2.3.36-.6.19-1.13.55-1.53,1.05-.38.53-.58,1.17-.53,1.82,0,1.13.41,1.94,1.17,2.49.77.5,1.94.77,3.47.77.46,0,.96-.05,1.46-.1.5-.05,1.01-.14,1.49-.26.5-.14.96-.26,1.37-.41l.05-.14c-.07-.29-.1-.6-.1-.91-.07-.38-.12-.79-.1-1.2ZM42.34,41.03c-.41.07-.81.1-1.22.1-.72,0-1.27-.1-1.63-.31-.38-.24-.6-.65-.58-1.08,0-.55.19-.91.58-1.13s1.01-.31,1.82-.31c.38,0,.77.05,1.13.1.14.05.26.05.41.1v1.49c0,.19.05.36.05.55,0,.14.05.29.1.41-.29.02-.46.05-.65.1Z"/>
    <polygon class="st1" points="52.07 39.69 49.72 32.58 46.97 32.58 46.97 32.79 50.8 42.95 49.17 46.83 49.17 47.02 51.76 47.02 57.29 32.79 57.29 32.58 54.66 32.58 52.07 39.69"/>
    <path class="st1" d="M73.18,33.2c-.43-.31-.93-.55-1.44-.67-.58-.12-1.15-.19-1.73-.19-.62,0-1.25.1-1.87.24-.5.12-1.01.29-1.49.5-.38-.24-.79-.41-1.22-.5-.55-.14-1.1-.22-1.68-.24-.53,0-1.05.05-1.58.14-.55.1-1.08.19-1.58.31-.5.14-.96.26-1.32.41l-.05.14c.05.29.1.6.1.91.05.38.05.74.05,1.13v7.28h2.59v-6.71c0-.36,0-.69-.05-1.05,0-.07-.02-.14-.05-.22.14-.05.31-.1.5-.14.36-.1.74-.14,1.13-.14.41,0,.79.07,1.17.24.36.14.65.41.81.77.22.48.34,1.01.31,1.53v5.75h2.59v-5.85c.02-.72-.1-1.44-.36-2.13.22-.07.46-.14.67-.19.31-.07.65-.1.96-.1.43,0,.86.07,1.27.24.36.14.65.41.81.77.22.48.31,1.01.26,1.53v5.75h2.59v-5.89c.02-.77-.1-1.53-.36-2.25-.24-.5-.6-.98-1.05-1.37Z"/>
    <path class="st1" d="M84.99,33.08c-.84-.5-1.8-.74-2.76-.72-.91-.02-1.82.19-2.64.62-.74.43-1.34,1.05-1.73,1.8-.43.86-.65,1.82-.62,2.8-.02.81.12,1.61.41,2.35.24.62.65,1.2,1.17,1.63.55.43,1.17.77,1.87.96.81.24,1.65.34,2.49.31.6,0,1.17-.05,1.77-.14.43-.07.86-.19,1.27-.36v-2.08h-.19c-.36.17-.72.31-1.08.41-.53.12-1.05.17-1.58.19-.6,0-1.22-.1-1.8-.29-.48-.17-.91-.5-1.22-.91-.24-.36-.38-.79-.41-1.22h6.97v-.62c.07-.96-.07-1.92-.41-2.8-.29-.79-.81-1.49-1.53-1.92ZM84.35,36.75h-4.43c.02-.41.12-.79.26-1.17.17-.38.46-.72.81-.96.38-.19.79-.31,1.22-.31.72,0,1.27.19,1.58.6.36.41.55.96.55,1.73v.12Z"/>
    <path class="st1" d="M97.43,33.25c-.48-.31-.98-.55-1.53-.67-.6-.14-1.2-.22-1.8-.24-.53,0-1.05.05-1.58.14-.55.1-1.08.19-1.58.31s-.96.26-1.32.41l-.05.14c.05.29.1.6.1.91.05.38.05.74.05,1.13v7.28h2.59v-6.71c0-.36,0-.69-.05-1.05,0-.07-.02-.14-.05-.22.14-.05.31-.1.5-.14.36-.1.74-.14,1.13-.14.46,0,.89.07,1.32.24.36.14.67.43.86.77.22.48.34,1.01.31,1.53v5.75h2.56v-5.85c.02-.77-.12-1.53-.41-2.25-.19-.53-.55-1.01-1.05-1.34Z"/>
    <path class="st1" d="M107.51,40.68c-.22.05-.46.07-.67.1-.65,0-1.1-.14-1.37-.41-.34-.38-.48-.86-.46-1.37v-4.34h2.76v-2.08h-2.76v-2.64h-2.59v2.64h-1.63v2.08h1.63v4.53c-.05.72.12,1.44.46,2.08.31.55.81.96,1.41,1.2.72.29,1.49.43,2.28.41.34,0,.67-.02,1.01-.1.26-.05.53-.12.77-.22v-2.08h-.19c-.19.1-.41.17-.65.19Z"/>
    <path class="st1" d="M116.67,37.25c-.5-.24-1.03-.38-1.58-.46l-.86-.14c-.43-.07-.86-.19-1.27-.36-.26-.12-.43-.38-.41-.67-.02-.38.22-.74.6-.86.53-.19,1.08-.29,1.63-.26.46,0,.91.05,1.37.1.46.1.91.24,1.37.41h.14v-2.13c-.43-.14-.86-.24-1.32-.26-.48-.07-.96-.1-1.44-.1-1.13,0-2.08.14-2.76.46-.62.22-1.15.62-1.53,1.17-.31.48-.5,1.05-.5,1.63,0,.86.26,1.49.81,1.89.67.46,1.46.77,2.28.91l.86.14c.46.05.89.17,1.32.36.26.12.43.41.41.72,0,.24-.07.46-.24.62-.14.17-.34.29-.55.31l-.67.14h-.67c-.62.02-1.22-.07-1.82-.24-.53-.12-1.03-.29-1.53-.5h-.14v2.2c1.08.34,2.23.5,3.35.5,1.63,0,2.8-.26,3.62-.81.81-.55,1.22-1.37,1.22-2.44.02-.53-.12-1.05-.41-1.49-.41-.34-.81-.62-1.27-.84Z"/>
    <path class="st1" d="M38.27,26.56c1.03.55,2.35.81,3.93.81.55,0,1.13-.05,1.68-.14.43-.07.86-.22,1.27-.41v-2.35h-.17c-.38.19-.77.34-1.17.46-.48.1-.96.14-1.44.14-.86.02-1.73-.17-2.49-.55-.65-.34-1.2-.89-1.53-1.53-.36-.67-.5-1.53-.5-2.54-.02-.86.14-1.7.5-2.49.34-.67.89-1.22,1.53-1.58.77-.38,1.63-.58,2.49-.55.48,0,.96.05,1.44.19.41.07.81.22,1.17.41h.19v-2.25c-.41-.19-.84-.31-1.27-.41-.55-.1-1.13-.14-1.68-.14-1.53,0-2.85.26-3.93.86-1.01.55-1.84,1.39-2.4,2.4-.58,1.13-.84,2.37-.81,3.62-.02,1.29.24,2.56.81,3.71.53.98,1.37,1.82,2.37,2.35Z"/>
    <path class="st1" d="M48.65,26.63c.77.5,1.94.77,3.47.77.46,0,.96-.05,1.44-.1.5-.05,1.01-.14,1.49-.26.5-.14.96-.26,1.37-.41l.05-.14c-.07-.29-.1-.6-.1-.91-.02-.38-.05-.77-.05-1.13v-3.33c.02-.74-.1-1.49-.36-2.18-.19-.53-.55-.98-.98-1.32-.46-.34-.98-.55-1.53-.62-.62-.12-1.27-.19-1.89-.19-.55,0-1.13.05-1.68.14-.5.07-1.01.19-1.49.36v2.08h.19c.38-.17.77-.29,1.17-.36.5-.1.98-.17,1.49-.19.48-.02.98.05,1.44.19.36.1.67.31.86.62.22.46.34.93.31,1.44v.19l-.55-.14c-.46-.1-.93-.14-1.41-.14-.79,0-1.56.12-2.3.36-.6.19-1.13.55-1.53,1.03-.38.53-.55,1.17-.53,1.82-.05,1.13.36,1.94,1.13,2.42ZM50.44,23.02c.41-.22.98-.31,1.8-.31.38,0,.77.05,1.13.1.14.05.26.05.41.1v1.49c0,.19.05.36.05.55,0,.14.05.29.1.41-.19.05-.36.14-.55.19-.41.07-.81.1-1.22.1-.72,0-1.27-.1-1.63-.31-.38-.24-.6-.65-.6-1.08,0-.62.17-.98.53-1.22h0Z"/>
    <path class="st1" d="M63.93,25.15l-.67.14h-.67c-.6,0-1.22-.07-1.82-.22-.53-.12-1.03-.29-1.53-.5h-.14v2.18c.53.17,1.05.29,1.58.36.58.1,1.17.14,1.77.14,1.63,0,2.8-.26,3.62-.81s1.22-1.37,1.22-2.44c.02-.53-.12-1.05-.41-1.49-.29-.41-.67-.74-1.13-.96-.5-.24-1.03-.38-1.58-.46l-.86-.14c-.43-.07-.86-.19-1.27-.36-.26-.12-.43-.38-.41-.67-.02-.38.22-.74.6-.86.53-.19,1.08-.29,1.63-.26.46,0,.91.05,1.37.1.46.1.91.24,1.37.41h.14v-2.13c-.43-.14-.86-.24-1.32-.26-.48-.07-.96-.1-1.44-.1-1.13,0-2.08.14-2.76.46-.62.22-1.15.62-1.53,1.17-.31.48-.5,1.05-.5,1.63,0,.86.26,1.49.81,1.89.67.48,1.46.77,2.25.91l.86.14c.46.05.89.17,1.32.36.26.12.43.41.41.72,0,.24-.07.46-.22.62-.19.19-.43.36-.69.43Z"/>
    <path class="st1" d="M79,27.19v-5.85c.02-.72-.07-1.44-.31-2.13-.19-.53-.5-1.01-.91-1.41-.38-.36-.84-.62-1.37-.77-.55-.17-1.1-.24-1.68-.22-.53-.02-1.08.05-1.58.19-.24.05-.46.12-.67.22v-4.17h-2.71l-.05.14c.07.29.1.6.1.91.05.38.05.77.05,1.13v11.91h2.59v-7.93h.05c.22-.05.5-.14.77-.19s.55-.07.81-.1c.41,0,.84.07,1.22.22.36.14.65.41.81.77.22.48.34,1.01.31,1.53v5.7l2.56.05Z"/>
    <path class="st1" d="M86.93,12.98c-.79-.02-1.58.12-2.3.46-.6.29-1.1.77-1.44,1.37-.36.69-.53,1.49-.5,2.25h-1.63v2.08h1.63v8.05h2.59v-8.07h2.59v-2.06h-2.59c0-.72.14-1.22.41-1.53.26-.36.77-.5,1.41-.5.24,0,.46.02.67.1.19.05.36.1.5.14h.19v-2.04c-.22-.1-.46-.14-.67-.19-.31-.05-.6-.05-.86-.05Z"/>
    <path class="st1" d="M89.78,19.76v7.43h2.59v-6.76c0-.43-.02-.84-.1-1.27.14-.05.26-.05.46-.1.38-.05.79-.1,1.17-.1.22,0,.46,0,.67.05.22,0,.43.02.62.1h.19v-2.13c-.26-.05-.5-.05-.77-.1h-.72c-.5,0-1.03.05-1.53.1-.48.05-.98.12-1.44.22s-.86.22-1.22.31l-.05.14c.07.29.1.6.1.91-.02.43.02.79.02,1.2Z"/>
    <path class="st1" d="M104.59,27.23c.43-.07.86-.19,1.27-.36v-2.08h-.19c-.36.17-.72.31-1.08.41-.53.12-1.05.17-1.58.19-.62,0-1.22-.07-1.82-.26-.48-.19-.91-.5-1.22-.91-.24-.36-.38-.79-.41-1.22h6.97v-.62c.07-.96-.07-1.92-.41-2.8-.29-.79-.84-1.49-1.53-1.94-.84-.5-1.8-.74-2.76-.72-.91-.02-1.82.19-2.64.62-.74.43-1.34,1.05-1.73,1.82-.43.86-.65,1.82-.62,2.8-.02.81.12,1.61.41,2.35.24.65.65,1.2,1.17,1.63.55.43,1.17.77,1.87.96.81.22,1.65.31,2.49.29.58,0,1.2-.05,1.8-.14ZM100.69,19.04c.38-.19.79-.31,1.22-.31.72,0,1.27.19,1.58.6.36.41.55.96.55,1.73v.1h-4.43c.02-.41.12-.79.26-1.17.17-.41.46-.74.81-.93Z"/>
    <path class="st1" d="M117.98,19.45c-.29-.79-.81-1.49-1.53-1.94-.84-.5-1.8-.74-2.76-.72-.91-.02-1.82.19-2.64.62-.72.43-1.32,1.05-1.7,1.8-.43.86-.65,1.82-.62,2.8-.02.81.12,1.61.41,2.35.24.62.65,1.2,1.17,1.63.55.43,1.17.77,1.84.96.81.24,1.65.34,2.49.31.6,0,1.17-.05,1.77-.14.43-.07.86-.19,1.27-.36v-2.08h-.19c-.36.17-.72.31-1.08.41-.53.12-1.05.17-1.58.19-.62,0-1.22-.07-1.82-.26-.48-.17-.91-.5-1.22-.91-.24-.36-.38-.79-.41-1.22h6.97v-.62c.07-.93-.05-1.89-.38-2.8ZM115.85,21.17h-4.43c.02-.41.12-.79.26-1.17.17-.38.46-.72.81-.96.38-.19.79-.31,1.22-.31.72,0,1.27.19,1.58.6.36.41.55.96.55,1.73v.12h0Z"/>
  </g>
  <path class="st2" d="M13.06,13.17c-2.68,0-4.86,2.16-4.89,4.84h18.07c2.71,0,4.89-2.18,4.89-4.89H13.06v.05h0Z"/>
  <path class="st2" d="M8.18,18.01c0-2.71,2.18-4.89,4.89-4.89h0v18.07c0,2.71-2.18,4.89-4.89,4.89h0v-18.07Z"/>
  <path class="st0" d="M14.6,19.64v4.89h5.65c2.71,0,4.89-2.18,4.89-4.89h-10.54Z"/>
  <path class="st0" d="M1.61,24.53c0-2.71,2.18-4.89,4.89-4.89h0v18.07c0,2.71-2.18,4.89-4.89,4.89h0v-18.07Z"/>
</svg>