<?xml version="1.0" encoding="UTF-8"?>
<svg id="Layer_1" xmlns="http://www.w3.org/2000/svg" version="1.1" viewBox="0 0 120 60">
  <!-- Generator: Adobe Illustrator 29.5.1, SVG Export Plug-In . SVG Version: 2.1.0 Build 141)  -->
  <defs>
    <style>
      .st0 {
        fill: #c4161c;
      }

      .st0, .st1 {
        fill-rule: evenodd;
      }

      .st1 {
        fill: #fff;
      }

      .st2 {
        fill: #231f20;
      }
    </style>
  </defs>
  <g id="g6980">
    <path id="rect6904" class="st2" d="M27.92,30.62h86.5v.36H27.92v-.36Z"/>
    <g id="g6912">
      <path id="path6906" class="st0" d="M1.49,18.17h10.91c6,0,10.91,4.91,10.91,10.91s-4.91,10.91-10.91,10.91H1.49v-21.81Z"/>
      <path id="path6908" class="st1" d="M10.56,19.32c2.78,0,5.27,1.28,6.92,3.3-1.24-.86-2.75-1.37-4.39-1.37-4.16,0-7.54,3.25-7.54,7.25,0,.2,0,.37.02.57H1.51c0-.16-.02-.31-.02-.47,0-5.12,4.06-9.28,9.07-9.28Z"/>
      <path id="path6910" class="st1" d="M8.71,38.83c-2.78,0-5.27-1.28-6.92-3.3,1.24.86,2.75,1.37,4.39,1.37,4.16,0,7.54-3.25,7.54-7.25v-.16h-4.06v-1.09h8.14c.49,5.4-3.02,10.43-9.09,10.43Z"/>
    </g>
    <g id="g6940">
      <path id="path6914" class="st2" d="M37.02,28.08l4.21-9.91h.98c.68,0,1.12.31,1.38.86l3.28,7.57.63,1.48h-1.98l-1.25-2.7h-3.15l.63-1.59h2.06l-1.63-3.72-3.27,8.03h-1.9v-.02Z"/>
      <path id="polygon6916" class="st2" d="M51.37,19.76v8.32h-1.84v-8.32h-2.84v-1.59h7.52v1.59h-2.84Z"/>
      <path id="polygon6918" class="st2" d="M90.65,19.76v8.32h-1.84v-8.32h-2.84v-1.59h7.52v1.59h-2.84Z"/>
      <path id="rect6920" class="st2" d="M94.5,18.17h1.84v9.91h-1.84v-9.91Z"/>
      <path id="path6922" class="st2" d="M28.1,18.17h4.45c1.27,0,2.44.55,3.27,1.45s1.35,2.13,1.35,3.48-.52,2.58-1.35,3.48c-.85.89-2,1.45-3.27,1.45h-4.63v-9.85h.18ZM32.55,19.81h-3.07v6.57h3.07c.85,0,1.61-.37,2.16-.96.55-.6.91-1.41.91-2.32s-.34-1.72-.91-2.32c-.55-.59-1.32-.96-2.16-.96h0Z"/>
      <path id="path6924" class="st2" d="M107.02,27.66v-1.66c.99.37,2.11.55,3.36.55,1.51,0,2.28-.5,2.28-1.53,0-.75-.47-1.11-1.4-1.11h-1.69c-2.03,0-3.04-.93-3.04-2.78,0-2.03,1.45-3.06,4.34-3.06,1.11,0,2.16.16,3.15.49v1.66c-.99-.37-2.05-.55-3.15-.55-1.66,0-2.5.49-2.5,1.46,0,.75.41,1.11,1.2,1.11h1.69c2.16,0,3.23.93,3.23,2.78,0,2.08-1.37,3.12-4.11,3.12-1.25,0-2.37-.16-3.36-.49h0Z"/>
      <path id="path6926" class="st2" d="M105.34,27.64c-.36.15-.75.24-1.15.33s-.83.13-1.28.15h-.46c-.24,0-.52-.02-.8-.03-.24-.02-.47-.07-.68-.11-.44-.1-.85-.28-1.22-.5-.39-.23-.73-.52-1.04-.85-.44-.46-.78-1.01-1.02-1.63-.23-.59-.36-1.24-.36-1.9s.13-1.32.36-1.9c.24-.6.59-1.15,1.02-1.63.26-.28.55-.54.88-.73.31-.21.65-.37,1.01-.5.26-.1.55-.16.86-.2.34-.05.68-.07.99-.07h.15c.5,0,.99.05,1.45.13.46.08.89.2,1.3.36l.05.02v1.8l-.1-.03c-.42-.18-.85-.31-1.3-.41s-.93-.13-1.4-.13h-.21c-.37.02-.85.13-1.28.31-.42.18-.83.41-1.07.65l-.08.08s-.05.05-.07.08c-.26.29-.47.63-.62,1.02-.13.36-.21.76-.21,1.19s.08.85.23,1.24.37.75.65,1.04c.08.08.16.16.24.23.08.08.18.15.28.21.23.16.6.33,1.02.46.34.1.73.16,1.12.15h.21c.44-.02.88-.07,1.28-.15.42-.1.81-.21,1.2-.39l.1-.03v1.74l-.05.02Z"/>
      <path id="path6928" class="st2" d="M53.42,28.08l4.21-9.91h.98c.68,0,1.12.31,1.38.86l3.92,9.05h-1.98l-1.25-2.7h-3.17l.63-1.59h2.06l-1.63-3.72-3.27,8.03h-1.89v-.02Z"/>
      <path id="path6930" class="st2" d="M76.35,28.08l4.21-9.91h.98c.68,0,1.12.31,1.38.86l3.92,9.05h-1.98l-1.25-2.7h-3.17l.63-1.59h2.06l-1.63-3.72-3.27,8.03h-1.89v-.02Z"/>
      <path id="polygon6932" class="st2" d="M66.87,18.17l3.36,7.52,3.3-7.52h1.84v9.91h-1.71v-6.91l-2.68,6.91h-1.58l-2.75-6.91v6.91h-1.71v-9.91h1.92Z"/>
      <g id="g6938">
        <g id="g6936">
          <path id="path6934" class="st2" d="M115.36,19.7c0-.47.15-.86.46-1.19s.68-.49,1.12-.49.81.16,1.12.49.46.72.46,1.19-.15.86-.46,1.19-.68.49-1.11.49-.81-.16-1.12-.49c-.33-.33-.47-.73-.47-1.19ZM115.63,19.7c0,.39.13.73.37.99s.57.41.93.41.67-.13.93-.41c.26-.28.39-.6.39-.99s-.13-.72-.37-.99c-.26-.26-.57-.41-.93-.41s-.67.13-.93.41c-.28.26-.39.6-.39.99ZM116.61,19.86v.75h-.33v-1.89h.62c.23,0,.41.05.54.15.13.1.2.24.2.42,0,.1-.02.18-.07.24-.05.07-.11.13-.21.18.1.03.16.1.21.18s.07.18.07.28v.29s.02.08.03.11v.03h-.34s-.02-.08-.03-.13v-.29c0-.11-.03-.18-.08-.23s-.13-.08-.24-.08h-.36v-.02ZM116.61,19.57h.34c.1,0,.18-.03.24-.07.07-.05.1-.11.1-.2,0-.11-.03-.18-.08-.23-.07-.05-.16-.07-.31-.07h-.29v.55Z"/>
        </g>
      </g>
    </g>
    <g id="g6978">
      <path id="path6942" class="st2" d="M27.93,39.98v-6.66h2.05c.88,0,1.58.26,2.1.8.54.54.8,1.24.8,2.08v.91c0,.85-.26,1.54-.8,2.08-.54.54-1.24.8-2.1.8h-2.05ZM28.84,34.01v5.25h1.14c.62,0,1.11-.2,1.46-.6s.54-.93.54-1.56v-.93c0-.63-.18-1.15-.54-1.54-.36-.41-.85-.6-1.46-.6h-1.14v-.02Z"/>
      <path id="path6944" class="st2" d="M37.33,39.98c-.03-.15-.05-.28-.07-.39s-.03-.23-.03-.34c-.16.24-.39.44-.65.6-.28.16-.57.24-.88.24-.52,0-.91-.13-1.19-.39-.28-.26-.41-.63-.41-1.09s.2-.85.57-1.11c.39-.26.91-.41,1.56-.41h.98v-.49c0-.29-.08-.52-.26-.68s-.42-.26-.75-.26c-.29,0-.52.08-.72.23-.18.15-.28.33-.28.54h-.86l-.02-.03c-.02-.36.15-.68.5-.99.36-.29.83-.46,1.4-.46s1.01.15,1.35.42c.34.29.52.7.52,1.24v2.39c0,.18.02.34.03.52s.05.33.1.49h-.91v-.03ZM35.83,39.31c.33,0,.62-.08.88-.24s.44-.36.52-.57v-.8h-1.01c-.36,0-.65.1-.88.28-.21.18-.33.39-.33.65,0,.23.07.39.21.52.13.1.33.16.6.16Z"/>
      <path id="path6946" class="st2" d="M40.95,33.82v1.2h.94v.67h-.94v3.01c0,.23.05.39.15.49s.23.15.39.15c.05,0,.11,0,.18-.02s.11-.03.16-.05l.11.62c-.07.05-.16.1-.29.13s-.26.05-.39.05c-.37,0-.67-.11-.88-.33-.21-.23-.33-.57-.33-1.04v-3.01h-.8v-.67h.8v-1.2h.89Z"/>
      <path id="path6948" class="st2" d="M46.38,39.98c-.03-.15-.05-.28-.07-.39s-.03-.23-.03-.34c-.16.24-.39.44-.65.6-.28.16-.57.24-.88.24-.52,0-.91-.13-1.19-.39-.28-.26-.41-.63-.41-1.09s.2-.85.57-1.11c.39-.26.91-.41,1.56-.41h.98v-.49c0-.29-.08-.52-.26-.68s-.42-.26-.75-.26c-.29,0-.52.08-.72.23-.18.15-.28.33-.28.54h-.86l-.02-.03c-.02-.36.15-.68.5-.99.36-.29.83-.46,1.4-.46s1.01.15,1.35.42c.34.29.52.7.52,1.24v2.39c0,.18.02.34.03.52s.05.33.1.49h-.91v-.03ZM44.89,39.31c.33,0,.62-.08.88-.24s.44-.36.52-.57v-.8h-1.01c-.36,0-.65.1-.88.28-.21.18-.33.39-.33.65,0,.23.07.39.21.52.13.1.34.16.6.16Z"/>
      <path id="path6950" class="st2" d="M52.36,33.75v1.27h1.09v.46h-1.09v3.23c0,.33.07.55.18.68s.28.21.47.21c.08,0,.18,0,.26-.02.08,0,.18-.02.29-.03l.08.41c-.1.03-.21.07-.34.1-.13.03-.26.03-.39.03-.34,0-.62-.11-.81-.33-.2-.23-.29-.57-.29-1.04v-3.23h-.86v-.46h.86v-1.28h.55Z"/>
      <path id="path6952" class="st2" d="M54.56,37.43c0-.73.2-1.33.6-1.8.41-.47.93-.7,1.59-.7s1.19.23,1.59.7c.41.47.6,1.07.6,1.8v.15c0,.73-.2,1.33-.6,1.8-.41.47-.93.7-1.59.7s-1.2-.23-1.59-.7c-.39-.47-.6-1.07-.6-1.8v-.15ZM55.11,37.57c0,.57.15,1.06.44,1.45.29.39.7.59,1.22.59s.91-.2,1.2-.59c.29-.39.44-.88.44-1.45v-.15c0-.57-.15-1.04-.44-1.43-.29-.39-.7-.59-1.2-.59s-.91.2-1.2.59c-.29.39-.44.88-.44,1.43v.15h-.02Z"/>
      <path id="path6954" class="st2" d="M64.13,39.98h-.91v-6.66h.91v6.66Z"/>
      <path id="path6956" class="st2" d="M66.79,35.02l.07.73c.16-.26.37-.47.62-.62.24-.15.54-.21.85-.21.54,0,.94.16,1.24.47.29.31.44.8.44,1.45v3.14h-.91v-3.1c0-.44-.08-.75-.26-.93-.18-.18-.44-.28-.8-.28-.26,0-.49.07-.68.2s-.36.29-.47.52v3.61h-.89v-4.96h.81v-.02Z"/>
      <path id="path6958" class="st2" d="M72.84,33.82v1.2h.94v.67h-.94v3.01c0,.23.05.39.15.49s.23.15.39.15c.05,0,.11,0,.18-.02s.11-.03.16-.05l.11.62c-.07.05-.16.1-.29.13s-.26.05-.39.05c-.37,0-.67-.11-.88-.33-.21-.23-.33-.57-.33-1.04v-3.01h-.8v-.67h.8v-1.2h.89Z"/>
      <path id="path6960" class="st2" d="M77.28,40.08c-.68,0-1.24-.23-1.64-.68s-.62-1.06-.62-1.79v-.2c0-.7.21-1.3.63-1.76.42-.47.91-.7,1.5-.7.67,0,1.17.2,1.51.6s.52.94.52,1.61v.57h-3.22l-.02.02c.02.47.13.86.36,1.17.23.31.55.46.98.46.31,0,.57-.05.8-.13s.42-.21.6-.36l.36.59c-.18.18-.41.33-.7.44-.29.1-.65.16-1.06.16h0ZM77.15,35.64c-.31,0-.57.13-.78.37-.21.26-.34.57-.39.96l.02.02h2.29v-.11c0-.36-.1-.65-.28-.89s-.49-.34-.86-.34Z"/>
      <path id="path6962" class="st2" d="M81.49,39.98h-.91v-7.15h.91v7.15Z"/>
      <path id="path6964" class="st2" d="M84.18,39.98h-.91v-7.15h.91v7.15Z"/>
      <path id="path6966" class="st2" d="M86.87,33.75h-.89v-.93h.91v.93h-.02ZM86.87,39.98h-.89v-4.96h.91v4.96h-.02Z"/>
      <path id="path6968" class="st2" d="M88.39,37.59c0-.8.18-1.45.52-1.93s.83-.73,1.45-.73c.31,0,.59.07.83.2s.44.31.6.55l.11-.65h.72v4.99c0,.63-.18,1.12-.55,1.46-.37.34-.91.5-1.59.5-.24,0-.49-.03-.76-.1-.28-.07-.52-.16-.73-.28l.23-.7c.16.1.36.16.59.23.23.05.46.08.68.08.44,0,.76-.1.96-.29s.29-.5.29-.91v-.57c-.16.21-.36.36-.59.47-.23.1-.49.16-.78.16-.6,0-1.09-.23-1.43-.67-.34-.44-.52-1.01-.52-1.72v-.1h-.02ZM89.29,37.69c0,.5.1.89.31,1.2.21.31.54.46.96.46.28,0,.5-.07.68-.18.18-.11.34-.29.46-.52v-2.28c-.11-.21-.26-.37-.46-.5-.18-.13-.41-.18-.67-.18-.44,0-.75.18-.96.54-.21.36-.33.83-.33,1.38v.08Z"/>
      <path id="path6970" class="st2" d="M96.31,40.08c-.68,0-1.24-.23-1.64-.68s-.62-1.06-.62-1.79v-.2c0-.7.21-1.3.63-1.76.42-.47.91-.7,1.5-.7.67,0,1.17.2,1.51.6s.52.94.52,1.61v.57h-3.22l-.02.02c.02.47.13.86.36,1.17s.55.46.98.46c.31,0,.57-.05.8-.13s.42-.21.6-.36l.36.59c-.18.18-.41.33-.7.44-.29.1-.65.16-1.06.16h0ZM96.18,35.64c-.31,0-.57.13-.78.37-.21.26-.34.57-.39.96l.02.02h2.29v-.11c0-.36-.1-.65-.28-.89s-.5-.34-.86-.34h0Z"/>
      <path id="path6972" class="st2" d="M100.36,35.02l.07.73c.16-.26.37-.47.62-.62.24-.15.54-.21.85-.21.54,0,.94.16,1.24.47s.44.8.44,1.45v3.14h-.91v-3.1c0-.44-.08-.75-.26-.93-.18-.18-.44-.28-.8-.28-.26,0-.49.07-.68.2s-.36.29-.47.52v3.61h-.91v-4.96h.83v-.02Z"/>
      <path id="path6974" class="st2" d="M107.21,39.36c.29,0,.57-.1.8-.28.23-.18.34-.41.34-.68h.81l.02.03c.02.42-.18.81-.57,1.14-.39.34-.86.5-1.38.5-.72,0-1.27-.23-1.66-.7-.39-.47-.57-1.06-.57-1.77v-.2c0-.7.2-1.3.57-1.77.39-.47.93-.72,1.66-.72.59,0,1.06.18,1.43.52.37.34.55.76.54,1.27l-.02.03h-.81c0-.31-.11-.55-.33-.76s-.49-.33-.81-.33c-.47,0-.81.16-1.01.5-.21.34-.31.76-.31,1.25v.2c0,.5.1.93.31,1.27.18.33.52.49.99.49h0Z"/>
      <path id="path6976" class="st2" d="M112.58,40.08c-.68,0-1.24-.23-1.64-.68s-.62-1.06-.62-1.79v-.2c0-.7.21-1.3.63-1.76.42-.47.91-.7,1.5-.7.67,0,1.17.2,1.51.6s.52.94.52,1.61v.57h-3.22l-.02.02c.02.47.13.86.36,1.17s.55.46.98.46c.31,0,.57-.05.8-.13s.42-.21.6-.36l.36.59c-.18.18-.41.33-.7.44-.29.1-.65.16-1.06.16h0ZM112.43,35.64c-.31,0-.57.13-.78.37-.21.26-.34.57-.39.96l.02.02h2.29v-.11c0-.36-.1-.65-.28-.89-.21-.23-.49-.34-.86-.34h0Z"/>
    </g>
  </g>
</svg>