<?xml version="1.0" encoding="UTF-8"?>
<svg id="Layer_1" xmlns="http://www.w3.org/2000/svg" version="1.1" viewBox="0 0 120 60">
  <!-- Generator: Adobe Illustrator 29.5.1, SVG Export Plug-In . SVG Version: 2.1.0 Build 141)  -->
  <defs>
    <style>
      .st0 {
        fill: #f16322;
      }
    </style>
  </defs>
  <path class="st0" d="M66.58,20.44c1.02-1.27,2.45-1.77,3.99-2,1.05-.16,2.13-.12,3.16-.35,2.38-.54,4.43-1.78,6.14-3.45,2.6-2.52,5.06-5.19,7.6-7.77,1.53-1.55,3.26-2.8,5.48-3.21,2.56-.47,4.96-.12,7.13,1.37.29.2.55.43,1,.78-4.74-1.55-8.02-.79-10.38,2.3-2.05,2.69-2.14,6.45-.21,9.29,2.12,3.13,5.39,4.06,10.1,2.81-1.43,1.27-3.04,1.77-4.77,1.98-2.44.31-4.88.62-7.33.92-4.86.61-8.95,2.73-12.28,6.27-1.42,1.51-3.1,2.32-5.21,2.27,1.89-.51,3.4-1.51,4.29-3.26.89-1.74.9-3.52.11-5.31-1.45-3.28-4.7-4.23-8.84-2.64Z"/>
  <g>
    <path d="M91.11,43.31c.36-1.45.7-2.78,1.04-4.12.54-2.15,1.09-4.3,1.61-6.46.13-.54.34-.81.95-.77.85.05,1.71.01,2.68.01-.48,1.94-.94,3.78-1.46,5.87,1.96-1.1,3.73-2.09,5.5-3.08.07.06.15.12.22.18-.39.53-.7,1.14-1.19,1.57-.4.35-.44.59-.28,1.05.65,1.88,1.25,3.78,1.92,5.83-1.01,0-1.91.03-2.81-.02-.15,0-.34-.33-.41-.54-.4-1.18-.77-2.37-1.16-3.56-.06-.18-.15-.35-.26-.6-.66.41-1.29.76-1.87,1.18-.19.14-.29.46-.36.71-.25.93-.46,1.87-.68,2.75h-3.44Z"/>
    <path d="M28.19,35.31c.9,0,1.7,0,2.5,0,1.79,0,3.58-.01,5.37,0,1.79.02,2.25.58,1.85,2.34-.4,1.73-.82,3.45-1.28,5.17-.06.23-.35.54-.56.56-.94.06-1.89.03-2.95.03.33-1.41.63-2.73.96-4.14-1.26,0-2.43-.06-3.58.04-.32.03-.73.51-.86.87-.67,1.82-.4,2.15,1.55,2.11.36,0,.71,0,1.15,0-.21.71-.62,1.07-1.27,1.08-1.45.02-2.91,0-4.36-.02-.75-.01-1.1-.46-.95-1.15.21-.97.42-1.97.86-2.84.23-.45.92-.88,1.44-.93,1.55-.15,3.13-.1,4.69-.13.31,0,.69.08.9-.06.35-.24.59-.65.87-.98-.3-.22-.6-.61-.91-.63-1.25-.08-2.52-.07-3.77-.04-.85.02-1.4-.27-1.68-1.27Z"/>
    <path d="M75.79,43.4c.34-1.45.65-2.74.97-4.08-1.24,0-2.41-.08-3.56.03-.77.07-1.54,1.94-1.06,2.54.23.29.76.42,1.17.48.54.08,1.1.02,1.73.02-.21.63-.57,1.01-1.2,1.01-1.43.01-2.86.03-4.28-.04-1.04-.05-1.19-.29-1.1-1.31,0-.11,0-.22.03-.33.69-3.1,1.09-3.34,3.88-3.36,1.09-.01,2.18.02,3.27.02.25,0,.58.05.73-.08.34-.31.59-.72.88-1.09-.33-.19-.66-.53-1-.55-1.26-.06-2.52-.06-3.77,0-.92.05-1.28-.45-1.63-1.28.87,0,1.64,0,2.42,0,1.96,0,3.92-.01,5.88.02,1.4.03,1.79.46,1.51,1.82-.39,1.9-.88,3.78-1.35,5.67-.05.2-.33.48-.52.49-.94.05-1.89.02-2.98.02Z"/>
    <path d="M38.18,42.3c1.1,0,2.12,0,3.14,0,1.18,0,2.35-.03,3.53-.01.57,0,.82-.25.86-.78.05-.54-.22-.87-.74-.93-.58-.07-1.17-.1-1.76-.1-.98,0-1.96.06-2.94.06-.98,0-1.33-.42-1.13-1.38.16-.76.38-1.51.64-2.24.29-.82.92-1.43,1.78-1.46,2.72-.07,5.45-.03,8.2-.03-.15.86-.71,1.1-1.45,1.1-1.4,0-2.8,0-4.2,0-.33,0-.7-.02-.99.09-.24.09-.55.37-.57.58-.02.22.22.57.44.69.27.15.64.16.97.16,1.34.02,2.69,0,4.03.02,1.28.02,1.57.43,1.28,1.66-.75,3.21-1.31,3.65-4.62,3.65-1.68,0-3.36.01-5.04,0-.66,0-1.26-.17-1.45-1.09Z"/>
    <path d="M18.01,35.2c1.69.59,2.09-.38,2.44-1.58.33-1.14,1.19-1.68,2.42-1.66,1.62.03,3.25.02,4.87.04.18,0,.37.04.6.07-.12.62-.44.93-1.03.94-.7,0-1.4.05-2.1-.01-.93-.08-1.43.29-1.59,1.18-.06.35-.16.69-.27,1.14h3.59c-.31.86-.68,1.34-1.59,1.29-.77-.05-1.75-.23-2.26.15-.47.35-.45,1.36-.63,2.09-.33,1.32-.67,2.63-.96,3.96-.1.47-.32.63-.79.61-.89-.03-1.78,0-2.8,0,.55-2.28,1.08-4.45,1.57-6.47-.56-.49-1.04-.91-1.52-1.33.02-.14.04-.27.06-.41Z"/>
    <path d="M56.52,35.29h3.46c-.05.88-.53,1.22-1.23,1.27-.61.05-1.23.05-1.85.02-.5-.03-.76.12-.88.64-.29,1.27-.64,2.53-.95,3.8-.23.94-.02,1.22.97,1.27.8.04,1.61,0,2.51,0-.2.73-.51,1.12-1.22,1.12-1.51-.01-3.02,0-4.54,0-1.01-.01-1.44-.4-1.28-1.4.22-1.42.62-2.81.95-4.22.08-.35.16-.7.2-.91-.6-.46-1.11-.85-1.62-1.25.16-.2.18-.25.2-.25,1.26.08,2.23-.2,2.26-1.73,0-.11.26-.3.4-.3.97-.03,1.95-.01,3.04-.01-.15.68-.28,1.26-.43,1.95Z"/>
    <path d="M91.73,35.4c-.18.87-.67,1.17-1.46,1.15-1.06-.03-2.13,0-3.19,0-.74,0-1.21.26-1.37,1.04-.24,1.14-.57,2.26-.81,3.4-.21.97-.03,1.22.97,1.26,1.17.05,2.34.01,3.58.01-.11.77-.47,1.14-1.1,1.14-1.93.02-3.86.03-5.79-.02-.96-.03-1.47-.61-1.28-1.56.32-1.6.7-3.19,1.19-4.75.26-.85.95-1.59,1.86-1.63,2.44-.1,4.9-.03,7.41-.03Z"/>
    <path d="M59.8,43.41c.5-1.97.95-3.74,1.4-5.5.12-.46.24-.91.35-1.37.26-1.06.47-1.24,1.54-1.21.56.01,1.12.04,1.68.06.05,0,.1.04.27.1-.26,1.1-.53,2.22-.8,3.34-.27,1.13-.57,2.26-.83,3.39-.19.82-.64,1.25-1.53,1.2-.64-.04-1.28,0-2.09,0Z"/>
    <path d="M69.41,35.46c-.31,1.08-.56,1.26-1.6,1.29-.83.02-1.66.07-2.48.11.35-1.36,2.08-1.7,4.09-1.4Z"/>
  </g>
</svg>