<?xml version="1.0" encoding="UTF-8"?>
<svg id="Layer_1" xmlns="http://www.w3.org/2000/svg" version="1.1" viewBox="0 0 120 60">
  <!-- Generator: Adobe Illustrator 29.5.1, SVG Export Plug-In . SVG Version: 2.1.0 Build 141)  -->
  <defs>
    <style>
      .st0 {
        fill: #3b73b9;
      }

      .st1 {
        fill: #fff;
      }
    </style>
  </defs>
  <path class="st1" d="M60,53.18c12.81,0,23.19-10.38,23.19-23.18s-10.38-23.19-23.19-23.19-23.18,10.38-23.18,23.19,10.38,23.18,23.18,23.18"/>
  <path class="st0" d="M65.2,23.96c0-2.64,1.78-5.19,2.76-4.71,1.11.56-.83,3.04-2.76,4.71M53.06,24.92c0-2.12,2.09-6.15,3.37-5.72,1.51.5-1.25,4.57-3.37,5.72M50.94,40.08c-.96.04-1.6-.57-1.6-1.6,0-2.76,3.83-5.39,6.72-6.81-.51,3.85-1.81,8.26-5.11,8.41M68.6,31.09c-2.18,0-3.85,1.61-3.85,3.53,0,1.61.97,2.89,2.25,2.89.45,0,.9-.26.9-.83,0-.84-1.11-1.04-1.02-2.29.06-.82.83-1.37,1.6-1.37,1.54,0,2.26,1.49,2.26,3.03-.06,2.38-1.81,4.03-3.86,4.03-2.7,0-4.43-2.57-4.43-5.33,0-4.11,2.7-5.72,4.11-6.1.01,0,3.69.65,3.58-.97-.05-.71-1.11-.99-1.88-1.02-.85-.03-1.71.27-1.71.27-.45-.23-.76-.67-.95-1.18,2.63-1.99,4.5-3.92,4.5-6.1,0-1.16-.77-2.18-2.25-2.18-2.63,0-4.62,3.34-4.62,6.36,0,.51,0,1.03.13,1.48-1.67,1.22-2.91,1.98-5.16,3.33,0-.28.06-1.01.25-1.95.77-.84,1.83-2.09,1.83-3.05,0-.45-.25-.84-.77-.84-1.28,0-2.24,1.93-2.5,3.28-.58.71-1.73,1.61-2.7,1.61-.77,0-1.03-.71-1.09-.97,2.44-.84,5.46-4.18,5.46-7.19,0-.64-.26-2.06-2.18-2.06-2.89,0-5.33,4.3-5.33,7.64-1.03,0-1.41-1.09-1.41-1.93s.32-1.67.32-1.93-.13-.58-.52-.58c-.96,0-1.54,1.28-1.54,2.76.07,2.06,1.41,3.34,3.21,3.47.26,1.22,1.35,2.38,2.7,2.38.84,0,1.86-.26,2.57-.9-.06.45-.12.84-.19,1.22-2.83,1.48-4.88,2.51-6.75,4.18-1.47,1.35-2.31,3.15-2.31,4.56,0,1.93,1.22,3.73,3.72,3.73,2.95,0,5.2-2.38,6.3-5.65.51-1.54.72-3.78.85-5.84,2.95-1.67,4.35-2.64,5.89-3.73.19.32.39.58.64.77-1.35.71-4.56,2.7-4.56,7.39,0,3.34,2.25,7.07,6.68,7.07,3.66,0,6.16-3.02,6.16-5.91,0-2.63-1.48-5.07-4.31-5.07M79.65,36.61s-.05.05-.12.02c-.06-.02-.07-.05-.07-.08,0-.04.78-2.32.77-4.94,0-2.83-1.16-4.57-2.63-4.57-.9,0-1.54.64-1.54,1.61,0,1.73,2.12,1.86,2.12,5.65,0,1.54-.32,3.02-.83,4.62-2.38,8.03-9.96,11.75-17.34,11.75-3.41,0-5.82-.7-6.54-1.02-.03-.02-.06-.07-.03-.13.02-.04.07-.08.1-.06.29.11,2.37.77,4.94.77,2.82,0,4.5-1.16,4.5-2.57,0-.9-.71-1.6-1.6-1.6-1.73,0-1.87,2.18-5.59,2.18-1.6,0-3.02-.32-4.69-.84-7.97-2.44-11.76-9.95-11.76-17.4,0-3.63,1.02-6.52,1.04-6.55.01-.02.06-.04.11-.02.06.02.07.07.07.08-.09.3-.77,2.37-.77,4.94,0,2.83,1.16,4.5,2.63,4.5.83,0,1.54-.64,1.54-1.54,0-1.74-2.12-1.93-2.12-5.65,0-1.61.32-3.02.84-4.69,2.44-7.96,9.96-11.7,17.34-11.75,3.43-.03,6.43,1,6.55,1.09.02.02.04.06.02.11-.03.06-.07.07-.09.07-.04,0-1.99-.82-4.95-.82-2.76,0-4.5,1.15-4.5,2.63,0,.83.64,1.54,1.6,1.54,1.73,0,1.86-2.12,5.59-2.12,1.6,0,3.02.32,4.68.83,8.03,2.44,11.68,10.02,11.75,17.34.04,3.75-1.02,6.59-1.03,6.61M60,7.91c-12.2,0-22.09,9.89-22.09,22.09s9.89,22.09,22.09,22.09,22.09-9.89,22.09-22.09-9.89-22.09-22.09-22.09M60,53.18c-12.78,0-23.19-10.34-23.19-23.18S47.22,6.82,60,6.82s23.18,10.4,23.18,23.19-10.41,23.18-23.18,23.18"/>
</svg>