<?xml version="1.0" encoding="UTF-8"?>
<svg id="Layer_1" xmlns="http://www.w3.org/2000/svg" version="1.1" viewBox="0 0 120 60">
  <!-- Generator: Adobe Illustrator 29.5.1, SVG Export Plug-In . SVG Version: 2.1.0 Build 141)  -->
  <defs>
    <style>
      .st0 {
        fill: #fff;
      }

      .st1 {
        fill: #ed232a;
      }

      .st2 {
        fill: #004c8f;
      }
    </style>
  </defs>
  <g id="layer1">
    <g id="g11008">
      <path id="path1556" class="st2" d="M2.46,20.41h115.07v19.18H2.46v-19.18h0Z"/>
      <path id="path1558" class="st2" d="M21.64,20.41h95.89v19.18H21.64v-19.18Z"/>
      <path id="path1560" class="st0" d="M27.74,34.54v-9.07h2.99v3.06h2.8v-3.06h2.99v9.07h-2.99v-3.52h-2.8v3.52h-2.99"/>
      <path id="path1562" class="st0" d="M41.24,27.72h.77c.56,0,.96.06,1.22.17.19.08.35.21.49.4.13.19.23.42.3.71.07.29.1.6.1.93,0,.53-.07.97-.23,1.33-.15.36-.37.62-.65.78-.28.16-.7.24-1.26.24h-.75s0-4.56,0-4.56ZM42.39,34.54h0c.7,0,1.29-.06,1.77-.19.48-.12.87-.29,1.17-.48.3-.2.58-.47.83-.81.25-.35.47-.78.64-1.32.18-.53.26-1.13.26-1.81,0-1-.19-1.84-.58-2.55-.39-.69-.92-1.19-1.6-1.48-.68-.29-1.48-.44-2.42-.44h-4.15v9.07h4.07"/>
      <path id="path1564" class="st0" d="M48.43,34.54v-9.07h7.08v2.24h-4.13v1.45h3.31v2.18h-3.31v3.2h-2.95"/>
      <path id="path1566" class="st0" d="M65.5,28.93h-2.82c-.05-.45-.22-.81-.49-1.06-.27-.25-.62-.37-1.04-.37-.53,0-.96.2-1.29.61-.33.41-.5,1.07-.5,1.98,0,.64.07,1.11.21,1.44.14.34.34.58.59.74.26.16.57.24.95.24.46,0,.82-.12,1.09-.38.27-.25.43-.62.49-1.12h2.87c-.06.56-.18,1.04-.34,1.42-.16.38-.44.76-.82,1.15-.38.39-.84.69-1.37.89-.53.21-1.14.31-1.84.31s-1.33-.1-1.91-.3c-.59-.21-1.09-.5-1.48-.87-.4-.38-.72-.81-.94-1.3-.32-.68-.48-1.43-.48-2.27,0-.7.11-1.36.34-1.97.23-.6.54-1.12.95-1.53.41-.41.85-.72,1.34-.93.62-.27,1.31-.39,2.07-.39.66,0,1.27.1,1.85.29.58.2,1.05.48,1.42.86.37.38.66.81.86,1.31.14.34.24.76.28,1.26"/>
      <path id="path1568" class="st0" d="M75.06,27.51c.42,0,.69.02.83.06.17.05.32.15.42.28.11.14.16.29.16.47,0,.23-.09.42-.27.57-.19.15-.51.22-.97.22h-1.12v-1.6h.95ZM75.81,34.54h0c.71,0,1.2-.03,1.49-.1.29-.07.58-.17.88-.31.29-.15.52-.3.67-.46.23-.21.4-.48.53-.79.13-.32.19-.67.19-1.06,0-.55-.14-1-.41-1.36-.27-.37-.64-.61-1.11-.75.79-.5,1.18-1.14,1.18-1.92s-.35-1.43-1.03-1.84c-.53-.32-1.36-.49-2.48-.49h-4.5v9.07h4.59ZM75.33,30.74h0c.59,0,.97.07,1.17.22.18.15.27.35.27.62s-.1.49-.29.64c-.19.16-.57.23-1.15.23h-1.22v-1.72h1.22"/>
      <path id="path1570" class="st0" d="M86.14,31.49h-1.9l.94-3.3.96,3.3ZM83.35,34.54h0l.34-1.19h2.97l.35,1.19h2.97l-3.26-9.07h-3.03l-3.26,9.07h2.91"/>
      <path id="path1572" class="st0" d="M91.23,34.54v-9.07h2.78l3.14,4.86v-4.86h2.86v9.07h-2.84l-3.07-4.74v4.74h-2.87"/>
      <path id="path1574" class="st0" d="M102,34.54v-9.07h2.89v2.99l2.7-2.99h3.51l-3.33,3.42,3.67,5.66h-3.57l-2.18-3.61-.79.78v2.83h-2.89"/>
      <path id="path1576" class="st1" d="M2.46,20.41h19.18v19.18H2.46v-19.18Z"/>
      <path id="path1578" class="st0" d="M5.82,23.77h12.47v12.47H5.82v-12.47Z"/>
      <path id="path1580" class="st0" d="M11.09,20.41h1.92v19.18h-1.92v-19.18Z"/>
      <path id="path1582" class="st0" d="M2.46,29.04h19.18v1.92H2.46v-1.92Z"/>
      <path id="path1584" class="st2" d="M9.18,27.12h5.75v5.75h-5.75v-5.75Z"/>
    </g>
  </g>
</svg>