<?xml version="1.0" encoding="UTF-8"?>
<svg id="Layer_1" xmlns="http://www.w3.org/2000/svg" version="1.1" viewBox="0 0 120 60">
  <!-- Generator: Adobe Illustrator 29.5.1, SVG Export Plug-In . SVG Version: 2.1.0 Build 141)  -->
  <defs>
    <style>
      .st0 {
        fill: #737373;
      }

      .st1 {
        fill: #f25022;
      }

      .st2 {
        fill: #ffb900;
      }

      .st3 {
        fill: #7fba00;
      }

      .st4 {
        fill: #00a4ef;
      }
    </style>
  </defs>
  <path class="st0" d="M50.06,22.44v15.11h-2.62v-11.86h-.03l-4.69,11.86h-1.75l-4.79-11.86h-.03v11.86h-2.41v-15.11h3.78l4.34,11.2h.07l4.58-11.2s3.57,0,3.57,0ZM52.23,23.6c0-.42.14-.77.45-1.05.31-.28.66-.42,1.08-.42.45,0,.84.14,1.12.42s.45.63.45,1.05-.14.77-.45,1.05c-.31.28-.66.42-1.12.42s-.8-.14-1.08-.42c-.28-.31-.45-.66-.45-1.05ZM55.07,26.71v10.85h-2.55v-10.85s2.55,0,2.55,0ZM62.8,35.7c.38,0,.8-.07,1.26-.28.45-.17.87-.42,1.26-.7v2.38c-.42.24-.87.42-1.4.52s-1.08.17-1.71.17c-1.61,0-2.9-.49-3.88-1.5-1.01-1.01-1.5-2.31-1.5-3.85,0-1.75.52-3.18,1.54-4.3s2.45-1.68,4.34-1.68c.49,0,.98.07,1.43.17.49.1.87.28,1.15.42v2.45c-.38-.28-.8-.52-1.19-.66-.42-.14-.84-.24-1.26-.24-1.01,0-1.82.31-2.45.98s-.91,1.54-.91,2.66.31,1.96.91,2.55c.59.59,1.4.91,2.41.91ZM72.56,26.54c.21,0,.38,0,.56.03s.31.07.42.1v2.59c-.14-.1-.31-.21-.59-.28s-.56-.14-.94-.14c-.63,0-1.15.28-1.57.8s-.66,1.33-.66,2.45v5.46h-2.55v-10.85h2.55v1.71h.03c.24-.59.59-1.05,1.05-1.4.49-.31,1.05-.49,1.71-.49ZM73.68,32.31c0-1.78.52-3.22,1.5-4.27,1.01-1.05,2.41-1.57,4.2-1.57,1.68,0,3.01.49,3.95,1.5.94,1.01,1.43,2.38,1.43,4.09s-.52,3.15-1.5,4.2c-1.01,1.05-2.38,1.57-4.13,1.57s-3.01-.49-3.99-1.47c-.98-1.01-1.47-2.38-1.47-4.06ZM76.34,32.2c0,1.12.24,1.99.77,2.59s1.26.91,2.2.91,1.64-.28,2.13-.91c.49-.59.73-1.47.73-2.66s-.24-2.03-.73-2.66c-.49-.59-1.22-.91-2.1-.91-.94,0-1.64.31-2.17.94-.59.66-.84,1.54-.84,2.69ZM88.58,29.58c0,.35.1.66.35.87s.73.45,1.54.77c1.01.42,1.75.87,2.13,1.36.42.52.63,1.12.63,1.85,0,1.01-.38,1.82-1.19,2.45-.77.63-1.85.91-3.18.91-.45,0-.94-.07-1.5-.17s-1.01-.24-1.4-.42v-2.52c.45.31.98.59,1.5.77s1.01.28,1.47.28c.56,0,1.01-.07,1.26-.24.28-.17.42-.42.42-.8,0-.35-.14-.63-.42-.91-.28-.24-.84-.52-1.61-.84-.94-.38-1.61-.84-1.99-1.33s-.59-1.12-.59-1.89c0-.98.38-1.78,1.15-2.41s1.78-.94,3.01-.94c.38,0,.8.03,1.26.14s.87.21,1.19.31v2.48c-.35-.21-.73-.42-1.19-.59s-.91-.24-1.33-.24c-.49,0-.87.1-1.12.28-.24.24-.38.49-.38.84ZM94.32,32.31c0-1.78.52-3.22,1.5-4.27,1.01-1.05,2.41-1.57,4.2-1.57,1.68,0,3.01.49,3.95,1.5.94,1.01,1.43,2.38,1.43,4.09s-.52,3.15-1.5,4.2c-1.01,1.05-2.38,1.57-4.13,1.57s-3.01-.49-3.99-1.47c-.94-1.01-1.47-2.38-1.47-4.06ZM96.98,32.2c0,1.12.24,1.99.77,2.59s1.26.91,2.2.91,1.64-.28,2.13-.91c.49-.59.73-1.47.73-2.66s-.24-2.03-.73-2.66c-.49-.59-1.22-.91-2.1-.91-.94,0-1.64.31-2.17.94-.56.66-.84,1.54-.84,2.69ZM113.91,28.81h-3.81v8.75h-2.59v-8.75h-1.82v-2.1h1.82v-1.5c0-1.12.38-2.06,1.12-2.8s1.68-1.08,2.83-1.08c.31,0,.59.03.84.03s.45.07.63.14v2.2c-.07-.03-.24-.1-.45-.17-.21-.07-.45-.1-.73-.1-.52,0-.94.17-1.22.49s-.42.84-.42,1.47v1.29h3.81v-2.45l2.55-.77v3.22h2.59v2.1h-2.59v5.07c0,.66.14,1.12.35,1.4.24.28.63.42,1.15.42.14,0,.31-.03.52-.1s.38-.14.52-.24v2.1c-.17.1-.42.17-.8.24-.38.07-.73.1-1.12.1-1.08,0-1.89-.28-2.41-.84-.52-.56-.8-1.43-.8-2.59l.03-5.53h0Z"/>
  <g>
    <rect class="st1" x=".95" y="17.41" width="11.96" height="11.96"/>
    <rect class="st3" x="14.17" y="17.41" width="11.96" height="11.96"/>
    <rect class="st4" x=".95" y="30.63" width="11.96" height="11.96"/>
    <rect class="st2" x="14.17" y="30.63" width="11.96" height="11.96"/>
  </g>
</svg>