<?xml version="1.0" encoding="UTF-8"?>
<svg id="Layer_1" xmlns="http://www.w3.org/2000/svg" version="1.1" viewBox="0 0 120 60">
  <!-- Generator: Adobe Illustrator 29.5.1, SVG Export Plug-In . SVG Version: 2.1.0 Build 141)  -->
  <defs>
    <style>
      .st0 {
        fill: #014a90;
      }

      .st1 {
        fill: #054c92;
      }

      .st2 {
        fill: #12acdd;
      }

      .st3 {
        fill: #014a91;
      }
    </style>
  </defs>
  <path class="st0" d="M26.2,30.21l-20.84,11.64c.99-5.25,5.52-9.63,10.33-11.64-1.17-.83-2.46-1.45-3.63-2.29-3.13-2.25-6.06-5.65-6.7-9.54l20.84,11.83Z"/>
  <path class="st0" d="M54.74,18.19v6.76c2.18-3.19,8-3.67,9.54.32.08.22.42,1.34.42,1.46v10.61h-3.57v-9.86c0-.58-.79-1.45-1.37-1.64-1.61-.52-3.24.21-4.16,1.56-.23.33-.86,1.84-.86,2.15v7.79h-3.57v-19.15h3.57Z"/>
  <path class="st0" d="M47.04,22.88c-1.68-1.34-4.77-2.57-6.58-.85-2.89,2.75,4.21,4.65,5.7,5.59,5.62,3.51,2.27,10.55-4.48,10.11-1.03-.07-5.88-1.5-5.7-2.7.03-.19,1.6-2.32,1.79-2.37,1.05.44,1.85,1.22,3.07,1.57,2,.58,5.24.03,4.35-2.66-.5-1.53-4.64-2.73-6.11-3.66-1.26-.8-2.47-1.93-2.72-3.48-1.05-6.69,8.16-8.22,12.14-4.47l-1.48,2.92Z"/>
  <polygon class="st0" points="104.13 22.7 107.61 32.46 111.36 22.7 114.65 22.7 107.23 42.04 104.13 42.04 106.11 36.76 100.56 22.7 104.13 22.7"/>
  <path class="st0" d="M99.4,23.86c.26.44-.83,2.34-1.21,2.77-.6-.15-.99-.62-1.58-.83-1.27-.45-4.4-.76-3.71,1.46.2.64,3.69,1.9,4.53,2.42,4.44,2.78,1.98,7.84-2.96,8.05-1.5.06-4.82-.75-5.76-1.98-.39-.51,1.27-2.05,1.34-2.73.72.25,1.25.9,2.06,1.22,1,.39,2.51.73,3.45.07.56-.39.67-1.29.25-1.8-.51-.62-3.46-1.6-4.44-2.23-1.79-1.16-2.69-2.82-1.99-4.96,1.09-3.32,6.11-3.45,8.78-2.21.17.08,1.2.67,1.24.73Z"/>
  <rect class="st3" x="67.32" y="22.7" width="3.57" height="14.65"/>
  <path class="st2" d="M29.01,18.19l-5.07,8.93-4.51-2.36c2.16-3.34,5.76-5.58,9.58-6.57Z"/>
  <path class="st1" d="M70.89,18.19v3.1s-.26.28-.28.28h-3.29v-3.38h3.57Z"/>
  <path class="st0" d="M83.14,22.56c-2.55-.52-4.49.14-6.24,2.02.2-.69.27-1.19,0-1.88h-3.19v19.15c.18-.06.41.19.47.19h3.1v-6.2c3.01,3.32,8.44,2.01,10.04-2.07,1.53-3.87.57-10.24-4.18-11.22ZM81.49,34.51c-5.38.78-5.61-8.26-1.25-8.95,4.99-.8,5.65,8.32,1.25,8.95Z"/>
</svg>