<?xml version="1.0" encoding="UTF-8"?>
<svg id="Layer_1" xmlns="http://www.w3.org/2000/svg" version="1.1" viewBox="0 0 120 60">
  <!-- Generator: Adobe Illustrator 29.5.1, SVG Export Plug-In . SVG Version: 2.1.0 Build 141)  -->
  <defs>
    <style>
      .st0 {
        fill: #ed1c24;
      }
    </style>
  </defs>
  <path class="st0" d="M48.41,31.3c1.03-.68,3.17-3.3,3.3-3.52s.56-.68.1-1.13-.91-.23-1.48.1c-.56.23-2.95,2.04-3.85,2.84-.91.68-3.17,2.72-3.17,2.72,0,0-1.26,1.03-.8,1.59s.91.35,1.48.12c.68-.23,3.42-2.04,4.43-2.72h0ZM98.81,44.13c.35.1,1.13.35,1.13,1.13,0,0-.8,1.59-1.03,1.71-.35.1-.91.1-2.04-.35s-6.69-1.81-8.18-2.16-4.76-.91-4.76-.91c0,0-.45-.23-1.13.8-.68,1.13-2.84,4.2-2.84,4.2-.07.26-.3.45-.56.45-.45,0-2.16-.12-2.84-.45s-.91-.35-.45-1.03,1.94-3.75,2.62-4.31c.56-.56-.45-.45-.8-.56s-6.92-.45-8.86-.35c-1.94,0-8.73,0-11.25.23-2.49.1-11.35,1.03-13.74,1.36-2.39.45-11.93,1.71-13.16,2.04s-3.85.68-3.85.68c-.87.19-1.78.12-2.62-.23-1.26-.56-3.3-1.36-1.59-1.94,1.71-.58,10.22-2.27,12.83-2.62,2.62-.45,10.9-1.59,14.3-1.71,3.4-.12,12.83-.68,16.35-.68s8.28.23,10.44.45c2.04.1,3.4.23,3.85.35s.45-.23.91-.68,1.71-2.16,1.71-2.16c0,0,.45-.68-.45-.1-.8.56-2.16.56-2.84,0-.68-.68-.91-1.26-1.26-1.03-.73.4-1.48.75-2.27,1.03-.68.23-3.63.91-5.33-.23-1.71-1.26-1.81-1.71-2.04-2.27-.23-.78-.35-.78-.91-.45-.58.33-2.49,1.36-3.3,1.71-.71.42-1.55.58-2.39.45-1.13-.1-2.39-.45-2.95-1.36-.45-.91-.56-1.59-1.13-1.13s-3.75,2.27-5.44,2.72c-1.71.58-2.16.68-3.07.58-1.03-.1-2.04-.58-2.39-1.13s-.45-.68-.91-.45c-.45.35-1.71,1.26-2.62,1.26-.91-.1-3.3-.68-4.53-3.07s-.35-3.4.8-4.65c1.13-1.13,3.17-2.95,3.17-2.95,0,0,2.62-1.94,3.4-2.27.91-.45,2.27-1.26,3.17-1.26,1.24-.16,2.48.21,3.42,1.03,1.26,1.03,2.04,2.04,2.16,2.49s.68,1.81-.23,2.84-3.52,3.4-3.52,3.4c0,0-1.03.58-.58,1.26s2.16-.45,2.72-.78c.56-.45,3.52-2.95,4.43-3.75.91-.91,6.59-6.47,7.15-7.04.45-.58,5.23-5.23,5.89-5.68.68-.45.91-.8,2.27-.56.71.12,1.39.35,2.04.68,0,0,1.36.58.23,1.36-1.03.78-4.65,3.85-5.56,4.76s-3.52,3.52-4.31,4.43c-.8,1.13-3.07,3.98-3.4,4.43-.35.58-.58,1.13,0,1.59.58.35,1.59,0,2.62-.91,1.03-.91,4.2-3.52,5.23-4.65,1.13-1.13,7.04-6.69,7.6-7.27.58-.45,3.3-2.62,3.3-2.62,0,0,.35-.45,1.13-.45s1.59.1,2.04.35l1.36.68s.56.23-.35.91-5.89,4.53-7.15,6.01c-1.36,1.48-3.98,4.43-5,5.68-1.03,1.36-1.71,1.94-.91,2.84s1.71.68,2.16.58c1.13-.65,2.16-1.45,3.07-2.39,1.13-1.13,4.53-4.88,5-5.23.35-.45,1.71-1.71,1.71-1.71,0,0,.23-.56,1.03-.56s1.13.1,1.94.23c.68.1,2.27.45,1.48,1.36-.91.91-3.07,3.17-3.52,3.63-.45.56-2.27,2.62-2.62,3.17s-.8,1.26-.35,1.59,1.71-.1,2.84-.8c1.57-.84,3.02-1.87,4.31-3.07,1.48-1.36,3.85-3.52,3.85-3.52,0,0,.45-.91,2.16-.56,1.71.45,2.16.56,2.16.56,0,0,1.36.35.45,1.13s-3.85,3.52-4.99,4.53c-1.13,1.13-4.65,4.65-5.23,5.33s-2.27,2.27-1.59,2.39,5.91,1.03,7.04,1.38c.89.68,4.99,2.04,5.32,2.27ZM40.12,15.87c-1.01-.14-2.04-.14-3.07,0-1.71.23-6.69.68-7.6,1.13s-1.71-.58-2.04-.91c-.45-.35-1.36-1.36-1.36-1.36,0,0-.45-.58.35-.8.91-.23,6.01-1.03,7.6-1.26,1.59-.1,9.31-.58,11.47-.58,2.04,0,9.19.45,11.12.91,0,0,.35-.1.8.8.21.58.33,1.2.35,1.81,0,0,.35.68-.91.58-1.48-.1-3.63-.23-5.11-.35s-4.99-.35-5.56-.35c-.45,0-.68,0-.91.45-.35.45-1.71,2.27-2.04,2.72s-1.81,2.39-3.07,4.1-2.84,3.85-4.31,6.01c-1.36,2.27-2.62,4.31-3.17,5.23-.35.54-.65,1.12-.91,1.71-.1.23-.23.58-.91.58s-3.63-.1-3.63-.1c0,0-1.26.1-.45-1.26.8-1.48,2.49-4.31,3.17-5.33.68-1.13,4.43-6.24,5.21-7.15.65-.8,4.95-6.59,4.95-6.59h0Z"/>
  <path d="M48.4,30.17c1.03-.68,3.19-3.3,3.3-3.52s.58-.68.1-1.13-.91-.23-1.48.1c-.56.23-2.95,2.16-3.85,2.84s-3.17,2.72-3.17,2.72c0,0-1.26,1.03-.78,1.59s.91.35,1.48.12c.66-.23,3.4-2.04,4.41-2.72h0ZM45.45,10.99h-.56c-2.72,0-9.31.45-10.79.58-1.59.1-6.69,1.03-7.6,1.26s-.45.78-.45.78c0,0,.91,1.03,1.36,1.36.45.35,1.13,1.36,2.04.91,1.03-.45,6.01-.91,7.6-1.13,1.01-.14,2.04-.14,3.07,0,0,0-4.31,5.67-4.99,6.69-.68.91-4.43,6.01-5.23,7.15-.68,1.13-2.49,3.98-3.3,5.33-.68,1.36.56,1.26.56,1.26,0,0,2.95.1,3.63.1.56,0,.68-.45.8-.68.26-.59.56-1.15.91-1.71.58-.91,1.81-2.95,3.17-5.23s3.07-4.43,4.31-6.14,2.72-3.63,3.07-4.08,1.71-2.27,2.04-2.72.45-.45.91-.45c.58,0,4.08.23,5.56.35,1.59.12,3.75.23,5.11.35s.91-.58.91-.58c.05-.59-.07-1.19-.35-1.71-.45-.91-.8-.8-.8-.8-1.78-.54-8.93-.89-10.97-.89h0ZM98.8,43c.35.23,1.13.45,1.03,1.13,0,0-.68,1.59-1.03,1.71s-.91.1-2.04-.35-6.69-1.81-8.18-2.16c-1.36-.23-4.65-.78-4.65-.78,0,0-.45-.23-1.13.91-.68,1.03-2.84,4.2-2.84,4.2-.07.26-.3.45-.58.45-.45,0-2.16-.1-2.84-.45s-.91-.35-.45-1.03,1.94-3.75,2.62-4.31-.35-.45-.68-.56c-.35,0-6.92-.45-8.86-.35-1.94,0-8.73,0-11.25.23s-11.47,1.03-13.74,1.36c-2.39.35-11.93,1.71-13.16,2.04-1.26.23-3.85.68-3.85.68-.87.19-1.78.12-2.62-.23-1.26-.56-3.3-1.36-1.59-1.94s10.22-2.27,12.83-2.62,10.9-1.59,14.3-1.71c3.4-.23,12.83-.68,16.34-.68s8.28.23,10.44.45c2.04.1,3.4.23,3.85.35s.45-.23.91-.68,1.71-2.16,1.71-2.16c0,0,.45-.58-.45-.1-.91.56-2.16.56-2.84-.1-.68-.68-.91-1.13-1.26-1.03s-1.59.78-2.27,1.03-3.52.91-5.23-.35c-1.71-1.13-1.81-1.71-2.04-2.16-.23-.56-.35-.56-.91-.23-.58.45-2.49,1.36-3.3,1.71-.73.4-1.55.59-2.39.56-1.13-.1-2.39-.45-2.95-1.36s-.58-1.59-1.13-1.13-3.75,2.27-5.44,2.72c-1.94.23-2.39.45-3.3.23-1.03-.23-2.04-.58-2.39-1.13s-.45-.68-.91-.35-1.71,1.26-2.62,1.13-3.3-.68-4.65-3.07c-1.26-2.39-.35-3.4.78-4.53,1.13-1.26,3.3-2.95,3.3-2.95,0,0,2.62-1.81,3.4-2.27.91-.45,2.27-1.26,3.17-1.26s2.16,0,3.4,1.03,1.94,2.04,2.16,2.49c.1.35.68,1.81-.23,2.84s-3.4,3.4-3.4,3.4c0,0-1.03.58-.58,1.36.45.68,2.16-.45,2.62-.91.58-.35,3.52-2.95,4.43-3.75.91-.91,6.59-6.47,7.15-6.92.45-.58,5.21-5.23,6.01-5.68.68-.45.91-.78,2.27-.56.71.12,1.39.35,2.04.68,0,0,1.36.56.23,1.36-1.03.91-4.65,3.85-5.56,4.76s-3.5,3.52-4.29,4.43c-.91.91-3.17,3.75-3.52,4.31s-.58,1.13,0,1.59,1.59,0,2.62-.91,4.2-3.52,5.23-4.65,7.04-6.69,7.6-7.15,3.3-2.72,3.3-2.72c0,0,.35-.45,1.13-.45s1.59.1,2.04.35l1.36.68s.58.23-.35.91-5.91,4.53-7.27,6.01c-1.26,1.48-3.98,4.43-4.99,5.67-1.03,1.36-1.71,2.04-.91,2.84.78.91,1.71.68,2.16.56s2.04-1.26,3.07-2.39c1.13-1.13,4.53-4.78,4.99-5.23.35-.45,1.71-1.71,1.71-1.71,0,0,.23-.56,1.03-.56s1.13.1,1.94.23c.68.23,2.27.45,1.48,1.36-.91.91-3.07,3.07-3.52,3.63s-2.27,2.62-2.62,3.17-.78,1.26-.35,1.59,1.71-.1,2.84-.8c1.6-.82,3.09-1.85,4.43-3.07,1.48-1.36,3.85-3.52,3.85-3.52,0,0,.35-.91,2.16-.56,1.71.35,2.16.56,2.16.56,0,0,1.36.35.45,1.13-.91.78-3.85,3.4-5,4.53-1.13,1.03-4.65,4.65-5.23,5.33s-2.27,2.27-1.59,2.39,5.89,1.13,7.04,1.48c1.05.4,5.02,1.88,5.37,2h0Z"/>
</svg>