<?xml version="1.0" encoding="UTF-8"?>
<svg id="Layer_1" xmlns="http://www.w3.org/2000/svg" version="1.1" viewBox="0 0 120 60">
  <!-- Generator: Adobe Illustrator 29.5.1, SVG Export Plug-In . SVG Version: 2.1.0 Build 141)  -->
  <defs>
    <style>
      .st0 {
        fill: #0a0a0d;
        fill-rule: evenodd;
      }
    </style>
  </defs>
  <path id="path44" class="st0" d="M43.88,49.33h1.33v-9.93h0c.67,1.93,3.93,4.46,3.93,4.46,0,0,2.53,2.13,3.73,5.06h0l.8.4v-14.46h-1.33v10.13h0c-.73-1.93-3.6-4.2-3.6-4.2-2.2-1.93-3.66-4.6-4-5.86h0l-.87-.27v14.66h0ZM58.41,34.87h1.87v14.46h-1.87v-14.46ZM57.54,30.61c0-1.07.8-1.87,1.87-1.87.93,0,1.8.8,1.8,1.87,0,1-.87,1.87-1.8,1.87-1.07,0-1.87-.87-1.87-1.87ZM73.46,38.21c-.47.13-.93-.07-1.4-.47-.67-.6-.93-1.2-1.8-1.73-.93-.47-2.27-.53-3.06.07-.73.53-.73,1.73.07,2.4,1.53,1.2,3.2,1.87,5.13,2.86,3.53,1.87,4.13,5.13,1.67,6.8-2.07,1.4-4.66,1.53-7,.67-1.8-.73-3.2-2.2-3.4-4,1.2,0,1.6.53,2.07,1.27.73,1,1.2,1.4,2.27,1.87,1.53.6,3.26.4,4.26-.2,1.47-.93,1.27-2.47.2-3.46-2.2-2.07-4.93-2.66-6.46-4.2-1.33-1.33-1.8-2.8-.4-4.33,1.2-1.27,4.4-1.67,6.26-.07.8.73,1.4,1.6,1.6,2.53h0ZM78.86,48.93h1.93v-3.93h5.26v4.13h2v-14.26h-2v8.99h-5.26v-8.99h-1.93v14.06h0ZM17.1,35.81c-.27-.53.13-1.93,1.73-1.8h7.86c1,.07,1.6-.67,2.86-.53-1.8,1.47-2,2.2-2.33,3.6h0l-1.27,10.33h0c-.33,4.2.87,7.66,4,10.53-1.93.27-6.13-2.8-6.26-8.4-.13-2.8.67-11.73.67-11.73.2-1.47,1.13-2.53,1.13-2.53h-7.46c-.47.07-.73.07-.93.53h0ZM97.52,48.47c-1.53-1.27-2.46-2.33-3.4-4.4-.93-1.87-1-4.06-.6-5.6.47-1.67,1.6-2.86,2.67-3.73,1.2.87,2.47,1.93,3.4,3.46,1.53,2.6,1.53,4.46.53,7-.6,1.47-1.27,2.33-2.6,3.26h0ZM96.72,33.08c-1.93,1.53-3.53,2.86-4.4,4.86-.93,2-1.2,4.86,0,7.33,1.33,2.73,2.86,4.2,4.66,6,1.27,1.4,3.66,4.2,2.86,6.66.6,0,1.4-1.47,1.53-2,.33-1.73.13-2.6-.6-3.86-.47-.87-1.47-1.73-2.2-2.6,1.07-.87,2.2-2.13,3.13-3.4,1.2-1.67,1.93-4.46.4-7.2-1.4-2.6-5.33-5-5.4-5.8h0ZM32.62,45h5.6v-6.33h0c-1.4,2.6-4.73,4-5.6,6.33ZM31.95,49.33c-.53-1.33-.13-2.8.2-3.33h6.06v3.33h1.53v-14.72h0s-.47-.07-.8.47c-2.27,3.6-4,4.53-6.53,7.06-2.13,2.13-3.73,4.53-2.93,7.2h2.47ZM72.8,7.49c.47-2.2-.93-4.2-3.13-4.2h-6c-1.53.07-3.6-1.2-3.6-1.2h0v10.06h0c0,10.19,5.6,14.52,8.19,14.92.47.2.8.07.2-.4-3.53-2.27-5.6-7.66-5.8-12.26h0V5.23h0c.73.47,2.13.53,2.13.53h5.33c1.4,0,2.13.47,2.67,1.73h0ZM45.95,7.49c-.47-2.2,1-4.2,3.13-4.2h6c1.6.07,3.6-1.2,3.6-1.2h0v10.06h0c0,10.19-5.6,14.52-8.2,14.92-.47.2-.8.07-.2-.4,3.53-2.27,5.6-7.66,5.8-12.26h0V5.23h0c-.73.47-2.13.53-2.13.53h-5.26c-1.4,0-2.13.47-2.73,1.73"/>
</svg>