<?xml version="1.0" encoding="UTF-8"?>
<svg id="Layer_1" xmlns="http://www.w3.org/2000/svg" version="1.1" viewBox="0 0 120 60">
  <!-- Generator: Adobe Illustrator 29.5.1, SVG Export Plug-In . SVG Version: 2.1.0 Build 141)  -->
  <defs>
    <style>
      .st0 {
        fill: #1c478c;
      }

      .st1 {
        fill: #bab3b1;
      }
    </style>
  </defs>
  <path class="st1" d="M75.64,27.78c.12,0,.67-.62.58.11l-16.45,24.56-.68.71h-13.64l.56-1.19,16.35-24.19c4.39-.16,8.92.22,13.29,0Z"/>
  <polygon class="st1" points="60.6 27.78 43.81 53.16 29.82 53.16 46.72 27.78 60.6 27.78"/>
  <polygon class="st0" points="91.61 27.78 74.7 53.16 60.83 53.16 77.62 27.78 91.61 27.78"/>
  <polygon class="st1" points="44.97 27.78 27.95 52.93 27.95 27.78 44.97 27.78"/>
  <path class="st0" d="M80.53,7.29c1.16.29-1.27,1.07-1.53,1.27-.63.48-1.23,1.66-1.59,2.37l-5.89,15.65-1.16-.11-4.75-11.96-4.35,11.72c-.17.48-1.26.66-1.43.1-1.74-3.72-3.23-7.58-5.02-11.28-.76-1.57-2.11-4.71-3.18-5.9-.49-.54-2.08-1.11-1.99-1.5.18-.84,4.07-.12,4.78-.12.66,0,4.27-.52,4.55-.23.25,1.06-.72.7-1.38,1.07-.77.42-.79.99-.66,1.79.28,1.73,3.6,8.39,4.59,10.32.12.24-.12.44.49.33.08-2.05,2.9-6.55,2.79-8.25-.03-.4-1.37-3.36-1.66-3.71-.11-.14-3.16-1.55-1.72-1.55h9.21c.28,1.16-1.08.46-1.87,1.27-1.12,1.15.69,5.02,1.23,6.47.7,1.87,1.56,3.72,2.39,5.53.75-1.88,1.55-3.78,2.22-5.7.42-1.21,1.86-4.72,1.53-5.72-.38-1.18-2.09-1.02-2.23-1.15s.2-.7.35-.7c1.45,0,5.18-.28,6.3,0Z"/>
  <path class="st0" d="M32.5,8.45c-1.79.36-2.96,2.67-3.97,3.96-.25.06-.49-.17-.55-.38s.36-4.21.48-4.58c.06-.19.15-.31.35-.37h19.65c.09.72.89,5.19.14,5.34-.4.08-1.96-2.88-3.45-3.53-.83-.36-4.29-.87-4.56-.04.22,4.78-.51,10.15.22,14.85.37,2.37,2.28,1.28,3.25,1.88,1.77,1.08-2.46.59-2.68.58-1.58-.05-3.34-.05-4.92,0-.6.02-3.2.68-3.37-.11s1.81-.51,2.45-1.04c1.22-.99.77-4,.8-5.49.02-.89,0-1.66,0-2.54,0-2.84.13-5.69-.22-8.51-1.07.15-2.62-.2-3.61,0Z"/>
  <path class="st0" d="M91.03,7.29c1.32.32-1.21.93-1.34.99-.75.36-.99,1.4-1.08,2.18-.34,2.83-.24,8.47-.04,11.39.14,1.97.23,4.23,2.81,3.83v.7h-9.56v-.7c2.09.13,2.45-1.11,2.58-2.9.23-3.19.33-9.46-.04-12.56-.05-.39-.31-1.54-.55-1.78-.5-.48-2.01-.13-1.99-1.16h9.21Z"/>
</svg>