<?xml version="1.0" encoding="UTF-8"?>
<svg id="Layer_1" xmlns="http://www.w3.org/2000/svg" version="1.1" xmlns:xlink="http://www.w3.org/1999/xlink" viewBox="0 0 120 60">
  <!-- Generator: Adobe Illustrator 29.5.1, SVG Export Plug-In . SVG Version: 2.1.0 Build 141)  -->
  <defs>
    <style>
      .st0 {
        fill: #fff;
      }

      .st1 {
        fill: none;
      }

      .st2 {
        fill: #00000a;
      }

      .st3 {
        fill: #ff5a5f;
      }

      .st4 {
        clip-path: url(#clippath);
      }
    </style>
    <clipPath id="clippath">
      <rect class="st1" x="6.65" y="11" width="106.7" height="38"/>
    </clipPath>
  </defs>
  <g class="st4">
    <g>
      <path class="st2" d="M62.25,36.78l6.27-15.49h-2.41l-4.54,11.61-4.54-11.61h-2.45l6.29,15.49h1.37Z"/>
      <path class="st2" d="M73.59,40.65l6.46-15.47h-2.37l-3.53,9-3.44-9h-2.37l4.67,11.36-1.71,4.1h2.28Z"/>
      <path class="st2" d="M98.95,36.78v-7.03c0-2.99-1.73-4.88-4.77-4.88-1.86,0-3.02.63-3.86,1.95-.59-1.21-2.11-1.95-3.63-1.95s-2.41.46-3.36,1.57h-.04v-1.26h-2.03v11.59h2.2v-6.51c0-2.28.95-3.41,2.89-3.41,1.58,0,2.66.9,2.66,3.18v6.74h2.2v-6.53c0-2.32.84-3.39,2.79-3.39,1.84,0,2.77,1.23,2.77,3.43v6.49h2.2Z"/>
      <path class="st2" d="M113.35,31.06c.04-3.68-3-6.19-6.23-6.19-3.59,0-6.4,2.62-6.4,6.15,0,3.26,2.94,6.05,6.23,6.05,3.74,0,6.36-2.91,6.4-6.01ZM111.15,30.94c0,.55-.11,1.09-.32,1.6-.21.51-.52.96-.91,1.35s-.85.69-1.36.9c-.51.21-1.05.31-1.6.3-2.22,0-4.05-1.93-4.05-4.12.01-1.08.45-2.12,1.21-2.89s1.8-1.2,2.88-1.22c.54,0,1.08.1,1.58.3.5.2.96.5,1.34.88s.69.83.9,1.33c.21.5.32,1.03.32,1.57h0Z"/>
      <path class="st3" d="M42.08,11H9.57c-1.61,0-2.92,1.31-2.92,2.92v32.16c0,1.61,1.31,2.92,2.92,2.92h32.5c1.61,0,2.92-1.31,2.92-2.92V13.92c0-1.61-1.31-2.92-2.92-2.92Z"/>
      <path class="st0" d="M26.28,30.54v6.31c0,.36-.14.7-.39.95-.26.25-.6.39-.96.39s-.71-.14-.96-.39c-.25-.25-.39-.59-.39-.95v-4.97h-4.58c-.18,0-.35-.03-.52-.1-.16-.07-.31-.17-.44-.29-.13-.13-.23-.27-.3-.44-.07-.16-.1-.34-.1-.52s.04-.35.1-.52c.07-.16.17-.31.3-.44.13-.13.28-.22.44-.29.16-.07.34-.1.52-.1h5.93c.34,0,.67.13.92.37.14.12.25.27.32.44.03.09.06.17.09.26.02.09.03.18.03.28h0Z"/>
      <path class="st0" d="M24.92,38.2c.18,0,.36-.03.52-.1.17-.07.32-.17.44-.29-.13.13-.27.23-.44.3-.17.07-.34.11-.52.11s-.36-.04-.52-.11c-.17-.07-.32-.17-.44-.3.13.13.28.23.44.29.17.07.34.1.52.1h0Z"/>
      <path class="st0" d="M32.01,24.77v14.22s0,.05,0,.07c-.02.35-.18.68-.43.92-.26.24-.6.37-.95.36-.35,0-.69-.15-.93-.4-.25-.25-.39-.59-.39-.94v-12.87h-12.82c-.18,0-.35-.03-.52-.1-.16-.07-.31-.17-.44-.29-.13-.12-.23-.27-.29-.44s-.1-.34-.1-.52.04-.35.1-.52c.07-.16.17-.31.29-.44.13-.12.28-.22.44-.29.16-.07.34-.1.52-.1h14.18c.18,0,.36.04.52.11.17.07.32.17.44.3h0s.03.03.04.05c.03.03.06.06.08.1.04.05.07.1.1.16.01.02.02.04.03.05.01.02.02.04.03.07.02.04.03.08.04.12h0c.02.06.03.13.04.19h0s.01.09.01.13c0,.02,0,.05,0,.07Z"/>
      <path class="st0" d="M38.08,41.6s0,.05,0,.07c-.02.32-.15.62-.36.85-.22.23-.51.38-.82.42-.31.04-.63-.03-.9-.2-.27-.17-.47-.43-.56-.73-.01-.04-.02-.08-.03-.12,0-.02,0-.04-.01-.07-.01-.07-.02-.14-.02-.2l-.03-21.16v-.11l-21.17.03c-.18,0-.35-.03-.52-.1-.16-.07-.31-.17-.44-.29-.13-.12-.23-.27-.29-.44-.07-.16-.1-.34-.1-.52s.04-.35.1-.52c.07-.16.17-.31.29-.44.13-.12.28-.22.44-.29.16-.07.34-.1.52-.1l22.53-.03h.02c.34,0,.67.13.92.36.25.23.4.55.43.89,0,.01,0,.02,0,.03,0,.02,0,.04,0,.06,0,.03-.02.05-.02.07l.03,22.54Z"/>
      <path class="st0" d="M38.08,41.67c-.02.32-.15.62-.36.85s-.51.38-.82.42c-.32.04-.63-.03-.9-.21-.27-.17-.47-.43-.56-.73.1.3.29.56.56.73.27.17.58.24.9.2.31-.04.6-.19.82-.42.22-.23.35-.53.36-.85h0Z"/>
      <path class="st0" d="M31.99,24.57c-.01-.06-.03-.13-.04-.19.02.06.03.13.04.19h0Z"/>
      <path class="st0" d="M32.01,24.7s0-.09-.01-.13c0,.04.01.09.01.13h0Z"/>
      <path class="st0" d="M35.37,41.61c0,.07,0,.14.02.2-.01-.07-.02-.14-.02-.21l-.03-21.15.03,21.16Z"/>
    </g>
  </g>
</svg>